<?xml version='1.0' encoding='utf-8'?>
<svg xmlns:xlink="http://www.w3.org/1999/xlink" xmlns="http://www.w3.org/2000/svg" width="30.529mm" height="28.99mm" version="1.1" viewBox="0 0 108.17 102.72"> <defs> <pattern id="d" patternTransform="matrix(1.6534 0 0 1.8563 4.0592 945.78)" xlink:href="#c"/> <pattern id="c" width="10" height="10" patternTransform="translate(0) scale(10)" patternUnits="userSpaceOnUse"> <circle cx="2.567" cy=".81" r=".45"/> <circle cx="3.048" cy="2.33" r=".45"/> <circle cx="4.418" cy="2.415" r=".45"/> <circle cx="1.844" cy="3.029" r=".45"/> <circle cx="6.08" cy="1.363" r=".45"/> <circle cx="5.819" cy="4.413" r=".45"/> <circle cx="4.305" cy="4.048" r=".45"/> <circle cx="5.541" cy="3.045" r=".45"/> <circle cx="4.785" cy="5.527" r=".45"/> <circle cx="2.667" cy="5.184" r=".45"/> <circle cx="7.965" cy="1.448" r=".45"/> <circle cx="7.047" cy="5.049" r=".45"/> <circle cx="4.34" cy=".895" r=".45"/> <circle cx="7.125" cy=".34" r=".45"/> <circle cx="9.553" cy="1.049" r=".45"/> <circle cx="7.006" cy="2.689" r=".45"/> <circle cx="8.909" cy="2.689" r=".45"/> <circle cx="9.315" cy="4.407" r=".45"/> <circle cx="7.82" cy="3.87" r=".45"/> <circle cx="8.27" cy="5.948" r=".45"/> <circle cx="7.973" cy="7.428" r=".45"/> <circle cx="9.342" cy="8.072" r=".45"/> <circle cx="8.206" cy="9.315" r=".45"/> <circle cx="9.682" cy="9.475" r=".45"/> <circle cx="9.688" cy="6.186" r=".45"/> <circle cx="3.379" cy="6.296" r=".45"/> <circle cx="2.871" cy="8.204" r=".45"/> <circle cx="4.59" cy="8.719" r=".45"/> <circle cx="3.181" cy="9.671" r=".45"/> <circle cx="5.734" cy="7.315" r=".45"/> <circle cx="6.707" cy="6.513" r=".45"/> <circle cx="5.73" cy="9.67" r=".45"/> <circle cx="6.535" cy="8.373" r=".45"/> <circle cx="4.37" cy="7.154" r=".45"/> <circle cx=".622" cy="7.25" r=".45"/> <circle cx=".831" cy="5.679" r=".45"/> <circle cx="1.257" cy="8.519" r=".45"/> <circle cx="1.989" cy="6.877" r=".45"/> <circle cx=".374" cy="3.181" r=".45"/> <circle cx="1.166" cy="1.664" r=".45"/> <circle cx="1.151" cy=".093" r=".45"/> <circle cx="1.151" cy="10.093" r=".45"/> <circle cx="1.302" cy="4.451" r=".45"/> <circle cx="3.047" cy="3.763" r=".45"/> </pattern> </defs> <g transform="translate(.99441 -948.33)" fill-rule="evenodd"> <path d="m104.6 1016.8h-59.132l9.6139 31.354-53.248-47.712 52.913-49.269-9.6139 31.354h59.132z" fill="#4646ff" stroke="#f00" stroke-width=".35433"/> <path d="m104.6 1016.8h-59.132l9.6139 31.354-53.248-47.712 52.913-49.269-9.6139 31.354h59.132z" fill="url(#d)" opacity=".302" stroke="#f00" stroke-width=".35433"/> <path d="m54.969 949.4c-0.34261 0.0115-0.66942 0.14685-0.91992 0.38086 0 0-52.299 48.746-52.912 49.268-1.5402 1.3094-1.3092 2.7629 0.019531 4.0937 0.53741 0.5383 48.563 43.395 51.248 45.711s5.2529 0.7428 4.3008-1.4707c-0.28342-0.6589-8.1618-27.522-8.1618-27.522h54.324c3.1199 3e-4 3.1671-0.9377 3.25-3.4297v-34.273c-7e-3 -0.77714-0.80682-1.4035-1.584-1.4043h-57.215l9.0508-29.521c0.28475-0.92929-0.42895-1.863-1.4004-1.832zm-2.8594 6.0605-8.0645 26.295c-0.27863 0.91101 0.4028 1.832 1.3555 1.832h57.729l0.30859 31.439h-57.701c-0.95378-4e-4 -1.6357 0.9223-1.3555 1.834l8.1191 26.48-48.297-43.273z" color="#000000" color-rendering="auto" fill="#00005b" image-rendering="auto" shape-rendering="auto" solid-color="#000000" style="block-progression:tb;isolation:auto;mix-blend-mode:normal;text-decoration-color:#000000;text-decoration-line:none;text-decoration-style:solid;text-indent:0;text-transform:none;white-space:normal"/> </g> </svg>