<svg width="569" height="275" viewBox="0 0 569 275" fill="none" xmlns="http://www.w3.org/2000/svg">
<path d="M6 17.8178C6 202.618 15.5 269.818 15.5 269.318C40.3333 213.818 122.289 106.173 197.5 61.8178C295 4.31778 364.5 -5.68221 458 17.8178C532.8 36.6178 558.833 115.318 562.5 152.318C554.667 183.984 525.236 237.429 475 247.318C411.5 259.818 306.051 260.624 244.5 239.318C192.5 221.318 44.5 104.818 6 17.8178Z" stroke="#EB6F3A" stroke-width="12"/>
<path d="M562.5 154.318C515.5 194.318 442 187.818 410.5 161.318" stroke="#EB6F3A" stroke-width="12"/>
<ellipse cx="482.5" cy="95.8177" rx="13" ry="14.5" fill="#161313"/>
<path d="M472 53.3177C477.389 53.3177 482.869 56.4137 487.246 62.6332C491.611 68.8358 494.5 77.7211 494.5 87.8177C494.5 97.9144 491.611 106.8 487.246 113.002C482.869 119.222 477.389 122.318 472 122.318C466.611 122.318 461.131 119.222 456.754 113.002C452.389 106.8 449.5 97.9144 449.5 87.8177C449.5 77.7211 452.389 68.8358 456.754 62.6332C461.131 56.4137 466.611 53.3177 472 53.3177Z" stroke="#EB6F3A" stroke-width="12"/>
</svg>
