<?xml version='1.0' encoding='utf-8'?>
<svg xmlns="http://www.w3.org/2000/svg" viewBox="0 0 1024 768"> <g fill-rule="evenodd"> <path d="m259 390 1-4 1 4q1 3 1 6v3h1v1h1v1q0 1-3 1h-5v-1l1-3q1-3 2-8z" fill="#b48112" stroke="#b48112"/> <path d="m684 321q0-2 2-5 2-2 4 0t-2 4q-3 3-4 1z" fill="#bc850c" stroke="#bc850c"/> <path d="m703 751 9-1h8v2h-4l-8 1q-8 1-70-1h-62 59q59 0 68-1z" fill="#02040e" stroke="#02040e"/> <path d="m242 405h1q0 1-3 1l-4 1v-14q0-14 3-1 2 13 3 13z" fill="#745504" stroke="#745504"/> <path d="m661 340v-4h1l2 2h2v3q0 1-1 1v1h-1q0 1-1 1h-1v-1l-1-3z" fill="#7a5f0c" stroke="#7a5f0c"/> <path d="m704 193 3-1h1v2q0 3-1 9v6h-1q0 1 0 1-1 0-6-4l-4-4q0-1-1-1v-1q-1 0-1 0v-1h-1v-1h-1v-1h-1v-1h-1v-1h-1v-1h6q6 0 9-1z" fill="#3db2e7" stroke="#3db2e7"/> <path d="m614 386-1-4 37 2q36 2 42 2h6v9l-1 5q0 4-3 2-4-2-11-6-8-4-15-5-8-1-18 1-11 2-20 6l-10 4v1h-1v1h-1l-1 1h-1v-7l-1-4q-1-5-1-8z" fill="#3251ef" stroke="#3251ef"/> <path d="m340 402h7l1 1 2 1h4v2h-1q-1 0-2 2-1 3-1 8 0 4 0 6v1h1v1h1v1h1v1h7q8 0 9-1t2-1h1v-1l3 9q3 10 4 13 2 3 3 3t1 1 5 3q4 2 6 2h2l-4 14q-4 14-3 27t4 21q4 8 5 9 0 1 0 1h1v1h1v2h1v1h1v1h1v1h2q1 1-5 9-5 9-16 22-12 13-18 23t-6 11v1l-2 2v2l-1 1v1h-2v-1l-1-1v-10q0-5 0-8 0-2 8-19l8-17 2-2v-3h-1v-1h-3l-2 1-1 1h-1v1h-1v1l-13 12q-12 13-20 22-8 10-9 10v1h-1v1h-1v1h-1v1h-1v1h-1v1h-1v1h-1v-3l1-2 1-1v-2q0-2 1-3l1-2v-3l2-2v-2l1-1q1-1 6-10 5-10 15-20l8-9h1v-1h2v-1h1v-1h1v-1h1v-2h-1v-1h-1v-1h-1v1h-2l-1 1-2 1h-1t-7 4q-8 2-22 12l-14 10h-1v1h-1v1h-2v1h-1v1h-3v-1l2-2v-1l1-2 1-1v-1t2-2q2-3 8-10 8-8 19-15t20-10l9-2v-4h-1v-1h-1v-1h-1v-1h-1l-1-1q-1-1-17-12-15-11-27-23t-16-20q-3-7-4-12v-8l1-1v-1q0-2 5-10l5-8h1v-1h1v-2h1l1-1h3-1l1 6q0 6 1 6t2 2q2 2 4 2 2 2 10 1t12-3 6-8 1-8-1-2l-2-2zm-14 50h-1v-1h-1v-1l-2-2v-11l1-3q2-3 7-4 4 0 8 1 4 2 6 5 2 2 2 6 0 5-2 7-2 3-8 3-6 2-8 1-1-1-2-1z" fill="#12b80e" stroke="#12b80e"/> <path d="m912 231h3v1q-1 1-11 12-10 12-23 32l-14 20h-3l-2-1-3-1h-3l-1-1h-1v-3t-2-8 4-16l6-7v-1h1v-1h1v-2h1v-1h1v-1h1v-1h-2v1h-1v1h-1v1h-1v1h-1v1h-1v1h-1t-3 4l-2 3h-1v1h-1v1h-1v1h-1v1h-1v1h-1v-7l2-2v-1l3-3q3-3 9-7 7-2 12-5 6-2 6-3 0 0 0-1h1l1 1t1 0v-1q0-1 1-1h1l13-4q12-4 14-5z" fill="#3fbaf2" stroke="#3fbaf2"/> <path d="m713 226v-2h1v1h1v1l3 3q2 3 3 3v1h1v1h-1v1q-1 0-3 1l-2 2h-1l-2 2h-1v-6q0-7 1-8z" fill="#41b5e5" stroke="#41b5e5"/> <path d="m723 311 1-2h1l3 3q2 3 2 4v1l2 2v5h-4v-1h-1q0-1 0-1h-1t-1-2-2-2h-1v-1h-1v-3q1-1 2-3z" fill="#bc840a" stroke="#bc840a"/> <path d="m51 70h1l1 1h1l6 3q6 4 24 7t19 9 5 10q4 5 10 8 5 2 10 4 4 0 8 1h4v1h-2l-2 1-1 1h1v1h-2l-1-1h-4q-4 0-9-3-6-3-12-7-6-6-8-12t-10-7q-7-1-20-5l-14-4v-1h-1v-1h-1q-1 0-3-3l-2-2h1l1-1z" fill="#141b1e" stroke="#141b1e"/> <path d="m617 429q0-5 3-4 4 1 3 4t-3 4q-3 1-3-4z" fill="#4d9e4b" stroke="#4d9e4b"/> <path d="m304 213v-1 3h-1v1h-1v1h-1v1h-1v1l-1 1q-1 1-3 4l-4 4v1l-2 2v1h-1v1h-1v2l-1 1h-1v1l-2 2v1l-6 9q-6 9-7 10l-1 1v1l-2 2v2h-2v-8q0-3 10-14l9-11h1v-2h1v-1q1 0 1-1h1v-1h1v-1h1v-1h1v-1h1v-1h1v-1l2-1q2-2 2-2v-1h1v-1h1v-1h1v-1h1v-1h1v-1h1z" fill="#40baf0" stroke="#40baf0"/> <path d="m655 361v-1h2v1h1v4l2 2v13h-2q-2 0-7-1h-5v-4q0-4 3-7l3-4v-1h1v-1h1v-1h1z" fill="#755706" stroke="#755706"/> <path d="m405 530h1l4 3q3 3 4 3v2h-1l-3 2q-2 1-10 10-8 10-9 10t-1 1-1 1-12 16-14 22q-3 7-4 8l-1 1v1h-1l-2 1h-2v-1l-1-1q0-1-1-2t-5-5l-5-5h-1q0-1 0-1h-2q-2 0-6 0-5 0-11 5l-5 4h-1v1h-5v-3q0-3-4-13l-2-10h-1v-1h-1v-2h-1l-1-1h-1v-2h2v1h1v1h1v1h1v2h1v1h1v2q2 2 2 4v1l1 1v2h3v-2l1-2 1-1v-3h2v-1h1v1h1v2l-1 2q-1 1-1 3v2l-1 1-1 2v3h1v-1h1v-1h1v-1h1v-1h1v-1h1v-1h1v-1q1 0 9-10 8-9 20-22l13-12v-1h1v-1h1l1-1 2-1h3v1h1v3l-2 2-8 17q-8 17-8 19 0 3 0 8v10l1 1v1h2v-1l1-1v-2l2-2v-1q0-1 6-11t18-23q11-13 16-22 6-8 5-9h-1v-1h1v-1zm-75 63h-5v-2l1-2v-1h1v-1h1v-1l5-6q4-5 8-8 3-4 13-12 9-9 8-4-2 5-6 16-4 10-5 18-1 9-8 6-7-2-13-3z" fill="#060f07" stroke="#060f07"/> <path d="m294 271 1 2-3 6q-2 5-3 6t-1 1h-4v-1l2-2v-1q0-1 4-7 4-7 4-4z" fill="#3fb8ec" stroke="#3fb8ec"/> <path d="m338 449-1 1h-3q-4 0-6-1h-1v-2h-2v-1l-1-1 1-3q1-4 3-6t7-2q5 2 7 4t0 6q-1 4-2 4t-2 1z" fill="#4ca14a" stroke="#4ca14a"/> <path d="m402 312-6-5 4 2q4 1 7 2l3 1h1l1 1h2v2h-1v1h-1l-1 1q-1 1-2 1l-1 1v-1t-6-6z" fill="#6e5005" stroke="#6e5005"/> <path d="m344 276h4l2-1h2v1q-1 2-2 2-2 0-12 12t-12 14q0 2-1 3l-1 1v2l-2 2v2h-3 1v-3l2-2v-3l1-1q1-1 6-12t9-14l3-3h3z" fill="#976a07" stroke="#976a07"/> <path d="m703 276h-1t-4 3l-4 2-1 1h-1q-1 0-3 2h-5v-3l2-2v-1h1v-1h1v-1h2v-1h1v-1l3-2q2-2 4-1 2 0 3 2t2 3z" fill="#b3810c" stroke="#b3810c"/> <path d="m312 304v13h-2q-3 1-4 1h-2l4-12q4-13 4-2z" fill="#c08409" stroke="#c08409"/> <path d="m623 723h2v2h-3l-3-1h-5l-2-2h-1l-2-2h-1v-1l-2-2v-2l1-1 1-2v-1h1v-1l9-4q9-6 22-9t22-3 10 0q2 1 1 2 0 0-11 1t-24 4-19 8q-7 4-7 7 0 2 4 4 5 2 7 3z" fill="#05091e" stroke="#05091e"/> <path d="m400 184h1q1 1 1 2v1q-1 1-4 3l-3 3h-1q0 1-11 11-11 11-27 29t-24 29l-9 10v1h-1v1l-2 2v1l-1 1v2h-1v15q0 5 1 5t4-6q3-7 5-11t3-5l11-15q10-15 22-29 13-14 22-22 10-10 11-10h1v-1h1v-1h1v-1h1v-1h1v-1l1-1h1v3l-1 1h-1v1h-1v1h-1v1h-1v1h-1q-1 0-5 5l-4 4h-1q0 1-3 4t-19 21q-16 19-18 24-2 4-1 5 2 1 2 2v1h-1q-1 0-3-1t-2 0l-1 1v2h-1v1h-1v2h-1v1h2l-3 3q-4 3-9 14t-6 12l-1 1v3l-2 2v3h-1 3v-2l2-2v-2l1-1q1-1 1-3 2-2 12-14t12-12q1 0 2-2v-1l-1-2q-1-2 2-1 3 2 9-4 6-5 6-5v-1h1v-1h1v-1h1v-1h1v-2h2v2l-2 2v1l-2 2v1q-1 1-4 4l-2 4-1 1h-1v2q-1 0-2 1v1q-1 0-10 9-10 9-14 14l-4 6h-1v1h-1v2l-1 2-1 1v1l-4 13q-4 13-4 16t-1 7l-1 4v9l2-2v-2l1-1 1-2v-1q0-1 11-21l11-21t10-13 11-14v-2h-1t0-1l-1-1h-1v-2h2v1h1v1h4l1-1v1l1 1q1 1 1 2v1l1 2 1 1v1h1l2 2h1v2h-2v-1h-1v-1h-1t0-1-3-1q-2 0-7 6l-4 6h-1v1h-1v1l-1 1q-1 1-1 2-1 1-1 1l-7 12q-8 11-8 12v1l-2 2v2l-4 8q-4 8-5 9l-1 1v2l-1 1-1 2v1l-5 13q-5 12-5 14v1l-2 2v2t-1 1h-7l-2 1-3 1h-2v-1l1-1v-2q0-2-3-15l-3-13v-5l-2 4v8q-2 8-2 15v7l-1 2v2h-1l-1 1h-4v-4q-1-3-3-14l-2-10v-4h-1v-1h-1v1l-1 2-1 3v5q0 5 0 14v10h-5l-3 1h-2v-1h-1v-1h-1v-3q0-3-1-6l-1-4q0-1 0-6t-1-11l-2-6v-2q-1-2-1-3h-1v-1q1-1 0-5v-5h1v-2h1v-1h1v-2h1v1h1v-2q0-2 1-3 0-1 1-1t3-7l2-6h1v2h2v-1l2-2v-2l1-1q1-1 5-8l4-6v-7l-2-2v-2h-1v1h-1v2h-1v1h-1v2q-2 2-2 3v1l-2 2v2l-2 2v-10l1-1q1-1 2-6l2-5v-1h1v-1h1v-1h-1l3-3h1v2h-1v1h1v1h1v1h1v4l2 2v2h2v-3l2-2v-1q0-2 0-3v-1t1-1 3-6l3-6q1 0 1 0v-1l2-2v-1h1v-1h1v-1h1v1h1l2 1h1v1l-1 1v1q-1 2-1 2h-1v1q0 1-1 2l-1 1v5h2l1-1h1v-1h1v-1h1v-1h1v-1h1v-1h1q0-1 1-2 2-1 2-8v-7h1v1h1v-3l2-2v-1l1 7v6h2v-1l1-1v-2h1v-1h1l11-17q11-18 23-32t12-14h1v-1h1v-1h1v-1h1v-1h1v-1h1v-1l2-2v-1h1v-1h1v-1h1v-1h2v1l-1 1v1h-1v1h-1v1h-1v1h-1v1h-1v1h-1v1h-1v1h-1v1h-1v1h-1v1h-1q0 1-1 2-2 2-14 19l-12 16h-1v1h-1v2l-2 2v2h1v-1h1v-1h1v-1h1v-1h1v-1h1v-1l26-26q26-25 28-27t2-2zm-88 120v13l-2 5q-2 6-2 7v1l-2 7q-1 7-2 7h-1v-1l-1-1v-4l-1-2-1-1v-1q0-2 0-4v-3q0-1 2-5l2-4 4-12q4-13 4-2zm-39 34-1-2v-2l4-6q2-6 2 4-2 9-2 10-1 0-2-1 0-2-1-3zm14 22-1 3v1t-1-12q-1-13 3-20 2-8 4-7 0 1-2 17-2 15-3 18zm-17-10q0-6 1-2 1 5 1 7t-1 2-1-7z" fill="#778f48" stroke="#778f48"/> <path d="m595 396h-6q-1 0-1-1 0 0-1-5l-1-5 5-5q4-2 8-2t6 3q1 2 1 7t-3 7q-3 1-8 1zm-5-8q1-4 6-6 5-1 6 3 2 4-1 6-2 1-7 2-4 0-4-5z" fill="#030e03" stroke="#030e03"/> <path d="m674 244 4 4q4 4 5 5l1 1v1l-2 2v3h-1v1h-1v2h-1q-1 1-13 1h-13l-1-1q0-1 3-4 4-3 11-9 8-6 8-6z" fill="#3eb7ed" stroke="#3eb7ed"/> <path d="m633 525h-1v-2h-1v-1h-1v-1h-1v-1h3l2-2 11-4q11-5 11-6t6-4q6-4 10-8 3-4 13-14 9-10 8 34-2 45-5 45-4 1-12-5-9-4-20-11-10-7-10-8-1-1-2-2-1 0-1-1t-1-1-1-1-3-4q-4-2-5-3z" fill="#3d5bf2" stroke="#3d5bf2"/> <path d="m309 264 3-4v7q0 7-2 8-1 1-1 2h-1v1h-1v1h-1v1h-1v1h-1v1h-1l-1 1h-2v-5l1-1q1-1 1-2v-1h1t1-2v-1l1-1v-1q1 0 4-5z" fill="#40b9ee" stroke="#40b9ee"/> <path d="m192 89v-1h1l5 4q5 4 12 6 6 2 12 3h5v1h7l-2 1h-1v2h-9q-8-1-10-1t-9-4q-7-3-9-4-2 0-3 1t-6 5-15 9q-11 5-22 5l-12 1v-1h-1l1-1 2-1h2v-1l11-1q11-2 21-6 10-6 15-11t5-6z" fill="#13191c" stroke="#13191c"/> <path d="m424 354-2 4h-5q-6 0-7-4 0-3 2-7 4-4 8-1t4 8zm-4 1-2 1-2-1q-3 0-2-3 1-2 4-2 2 0 3 2t-1 3z" fill="#020e02" stroke="#020e02"/> <path d="m794 375v-1 7q-1 7-2 7t-1-2q-1-2 1-6 2-5 2-5z" fill="#b9860f" stroke="#b9860f"/> <path d="m915 180h2-1v1h-1v1h-1v1h-1v1h-1v1h-1v1h-1t-8 8q-7 8-23 29l-17 20v1h-1v1h-1v2h-1v1h-1 5l7-3q8-3 9-3h1t0-1h3q0-1 1-1h1v1q0 1-5 3-6 2-10 5l-3 3v1h-1v1h-1v1h-1v2h-1v1h-1v1l-6 7q-6 8-4 16t2 8v1h-4v-1l-1-2q-1-2-1-5-1-3-4 2l-4 5-7 10q-7 10-6 14 1 5 3 12 4 6 4 7v1h-1q-1 0-2 4l-1 3v-1t-1 0v2q-1 1 0 6v6h-1v-2h-1v1h-1v-1l-1 2-1 1v-27l-2-2v-2l-1-1v-1h-2v1l-1 1v1l-2 2v2l-2 2 2 5q0 4 1 5t1 2v1l-2 2v7l-1-1-1-2v-3l-1-1q-1-2-1-4v-1l-2-2v1t-1 2v1h-1q0 1-1 1h-1v-4q0-3-2-6 0-4-2-4l-1-1v-3q-1-2-2-9l-1-7v-1q0-1 1-5l1-3v-3l1 2 1 1v1h1v-1h1v1h1v1l1 1v4q0 4 1 8l1 3v2l1 1v1h2v-1l1-1v-3l1-2 1-1v-3q0-1-4-7t-4-6h-2v-3l1-2v-2h2v-3h3v1l2 3q2 3 3 4l1 1v1l2 2v1h2v-9l-1-3-1-2v-5l-1-3v-2h1v-1h2v4l2 4v1h6v-2l5-8q5-8 5-8v-1l2-2v-2h1v-1h1v-2h-3l-1 1-2 1h-1q-1 0-5 2l-4 2-2 2h-2v-2l-1-1h-1v-1h1v-1h1v-2h1v-1h1l6-7q6-7 6-8t0-2v-1h1q1-1 1-2v-2l1 2 1 1v1h1v-1h1v-1h1v-1h1v-1l8-8q9-8 10-8h1v-1h1v-1h1v-1h1v-1h1v-1h1v-1h2v1h-1v1h-1v1h-1v1h-1v1h-1v1h-1v1h-1q0 1-10 11l-10 10h-1v2h-1v1h1v3l1 2 1 1v1h3v-1h1v-2h1v-1h1l14-18q14-18 29-32 15-15 16-15v-1h2v-1h1v-1h1v-1h1v-1h1zm-50 72v1h-1v1h-1v1h-1v1h-1v1h-1v1h-1t-3 4l-2 3h-1v1h-1v1h-1v1h-1v1h-1v1h-1v-7l2-2v-1l3-3q3-3 9-7 7-3 6-2 0 2-1 2t-1 1-1 1zm-27-2q1 0 2 4 0 3-6 5-5 3-5 2-1-1 3-5 4-5 6-6zm0 28q5-8 6-8t0 3q0 3-5 9-4 6-5 5 0 0 4-9z" fill="#709252" stroke="#709252"/> <path d="m624 183 2 1v1h1v1h1l2 2h1v1h1v1l22 18q22 19 24 21 2 1 6 1 4-2 4-3-1-1-3-4t1 0q4 3 5 3t-2-9-3-9l1-2q0-2 1-2t1 1 1 1l2 4q2 4 3 6l1 1v1l1 2v1h3v-3h1v-1h1v-3q0-3-4-8l-5-5h2q0 1 1 1l4 4q5 4 6 4 0 0 0-1h1v1q-1 2-1 8v7l-2 1q-2 2-2 6 2 5 2 5 0 1 0 1h1v10q-1 10-1 19v9h-1q-1-1-2-3t-3-2q-2-1-4 1l-3 2v1h-1v1h-2v1h-1v1h-1v1l-2 2v3h5q2-2 3-2h1l1-1v1h2v1h-1v1h-1v1h-1v1h-2v1h-1v1h-1q-1 0-7 5l-5 5h-2l-2-1h-2v-3l-1-4h-3v1h-1v1h-2t0-1 0-1v-3h-1v-1h-4v1h-1l1 2q0 1 1 2 1 0 1 1v1h-1l-1-1q-1 0-1 2v1h-1q-1-1-2-2t-5 3l-4 3h-1v1h-1v1h-1v1h-1v1h-1v1h-1v-7h1v-1h1v-1h1v-1l3-2q2-4 2-4h1q1 0 1 0 0-1 1-3v-2q1 0 2 0 2 0 2-1 1-1-1-2l-2-2v-2h1l1-1h1v1h3q2 2 4 0 1 0 1-1h1v-1h1v-1h1v-1h2v-2l1-1v-1h-5q-4 0-10-1l-6-1 2-1 1-1h15q12 0 13-1h1v-2h1v-1h1v-3l2-2v-1l-1-1q-1-1-5-5l-4-4q0-1-1-2l-1-1q-1-1-2-1v-1l-2-2v-1h-1v-1h-1v-2h1l1 1h1v1q1 0 1 1v1h1v-1h2l1-1 2-1v-3h-1v-1h-1v-1h-1v-1h-1t-20-19l-20-18h-1v-1h-1v-1h-1v-1h-2v-1h-1v-1h-1t-2-2q-3-2-1-2 1 0 2 1zm66 53q0 2-2 2-2-1 0-2 2-2 2 0zm-8 4q2 0 4 1 2 2 0 5-2 4-5 0-3-3-2-4 1-2 3-2zm17 17q1 2 0 3-2 2-4 0-1-1 1-3t3 0zm-29 20q6-5 7-5 1 1-1 4 0 3-4 6-3 4-5 2-3-1 3-7z" fill="#6e8b48" stroke="#6e8b48"/> <path d="m715 354v-1h1l1 1h1v1l2 2 6 11q6 12 6 13v1l2 2v2h-2l-5-1q-5-1-13-1l-9-1h-1v-4q0-4 1-8v-4h1v-1h1v-1h1v-2h1v-1l2-3q3-3 3-3v-1l1-1z" fill="#c08002" stroke="#c08002"/> <path d="m310 317h2l-2 5q-2 6-2 7v1h-2q-1 0-4-1l-2-1v-1q0-1 2-5l2-4h2q1 0 4-1z" fill="#795602" stroke="#795602"/> <path d="m276 365h1v1h1v4l2 10q2 11 3 14v4h-2l-6 2h-1v-10q0-9 0-14v-5l1-3 1-2v-1z" fill="#c08205" stroke="#c08205"/> <path d="m270 350q0-6 1-2 1 5 1 7t-1 2-1-7z" fill="#ba8610" stroke="#ba8610"/> <path d="m267 275h1v1l2 2v1l2 3q2 2 2 3v1l1 1v1q-1 0-1 0v1h-2q-1 1-4 1h-4q-1 0-1-3l1-3v-3l2-2v-3h1v-1z" fill="#40b4e6" stroke="#40b4e6"/> <path d="m144 325 46-15 1-1h1l1 1q1 0 1 1v1l-34 11q-34 11-70 25-36 16-59 27t-23 12h-1v1h-2l-2 2h-2l-1 1v-4l1-1h2v-1h1v-1h1q1 0 11-6 9-4 46-21 36-17 82-32z" fill="#0a0d0a" stroke="#0a0d0a"/> <path d="m641 272q0-2 3 0 4 2 4 3 1 1-2 1-2 0-4-1t-1-3z" fill="#bd840a" stroke="#bd840a"/> <path d="m116 0h8t-1 1-9 7q-8 7-10 12-3 6-4 6t-18 9-24 15q-6 7-6 12v7h1v1h1v1h-1l-1-1h-1l-1 1h-2v-2h-1v-1h-1l1-6q1-6 3-9t11-10 20-12 14-7q3-1 7-8 4-6 9-11 5-4 5-5z" fill="#131a1d" stroke="#131a1d"/> <path d="m814 312v3l-1 1-1 2v3l-1 1v1h-2v-1l-1-1v-2l-1-3q-1-4-1-8v-4l-1-1v-4h1t4 6 4 7z" fill="#c08407" stroke="#c08407"/> <path d="m571 156 1 2v2l1 2 1 1v3h-2l-2-1-1-1h-2q-2 0-13-2-12-2-34-4l-23-1v-1l1-1v-2l2-2v-1l6-5q5-5 12-9t18-4q10 0 18 4t12 12q4 7 5 8z" fill="#12b80f" stroke="#12b80f"/> <path d="m644 216 2 1h1v1h1l2 2 8 6q7 6 8 7 0 1 0 1h1t1 1q0 1 0 1h1v2l1 1v1q-1 0-14 8l-14 8-2 2h-2v1h-1v1h-1v1h1v1h5q4 0 17-10 13-9 13-10v-1l1 1q1 1 1 2 0 0-8 6-7 6-11 9-3 3-3 4l1 1h-2l-1 1-2 1-1 2q-1 1 3 3t4 3v2q0 1-1 1h-1q0-1 0-1l-2 2q-2 2-1 3t1 2h1v2q-1 2-1 3 0 0-1 0-1-1-1-2 0 0-3-1-2-1-9 7t-8 10v4h2v1h1v1h1v1h1v1h1v1l2 2v1h1v1h1v1h2l4-4q4-3 6-5 2-3 6-6t3-4-1-2v-1q0-2 1-2h1t0 1h2q2-1 2-1h2v-1h1v-1h3l1 4v3h2l2 1h1v1h-1v1h-1q-2 0-4 0-1 0-1 2-1 2-2 2-2 1-3 4v3h2q1 0 1 1-1 2-1 3v1l-1 2v2l-2 2q-1 3-2 8v10l1 3v1h1q1 0 1-1h1v-1q1 0 1-1v-1t1 0v-1h1v4h2v4h-1v1h1v2h1l-1 8q-2 9-2 14v4h1v1h1v3h-10v-13l-2-2v-4h-1v-1h-2v1h-1v1h-1v1h-1v1l-3 4q-3 3-3 7v4h-4q-4-1-7-1h-3v-1q0-1-1-2t-3 1l-2 2h-4v-1l2-2v-1q2-1 2-2v-5h-1v1h-1v1l-2 2v1l-1 1q-1 1-2 2l-1 1v1h-1v1h-5v-2l2-2v-4q0-1 0-2 0 0 3-10l3-10v-6l-2-2v1l-2 2v4h-1v1h-1l-1 5q-1 5-2 10l-1 5v-2l-2-2v-3l-1-1-1-2v-2q0-1-2-6l-1-5 4-5q5-6 6-8 1-3 2-4l1-1v-7l-1-1v-1h-2v1h-1v2h-1v1h-1v1h-1q0 1-4 6l-3 5h-1v1h-1v1h-1v1h-1l-2-2v-1l-1-1q-1-1-5-6l-4-5v-13h1v-1h1l2-1 1-1h1v-1h1v5l1 4v2h1v-1h1v-2h2v-2l5-6q5-6 4-8 0-1 0-2l1-1q0-2 4-6 4-3 10-11t7-13q1-6 1-10t0-5v-1h2v-2h1v-1h1v-3l6-10q6-9 7-10 1 0 1-1v-1h-1v-1h-1q0-1-2-2-3-1-3-2t3 1zm22 23-1 1h-1q-1 0-11 6l-10 6h-2l-2 2h-2v-2l1-1v-4h1v-1h1l3-10q4-11 5-11t1-1q0-2 7 4 8 6 10 8t1 2-1 1zm-25 33q0-2 3 0 4 2 4 3 1 1-2 1-2 0-4-1t-1-3zm-12 22v1q-1 0 0-5l1-5 2-4q3-3 6-2 4 2 3 4-1 1-6 6t-6 5zm-26 25 1-4 5-7q5-6 6-6 1 1 0 4-1 4-7 10-6 7-5 3zm49-5q1 0 0 5 0 6-3 7-2 2-4-1-1-2 2-7 3-4 5-4zm-14 18q0-3 2-2 1 0 2 3 0 3 0 5-2 1-2-1-2-2-2-5zm10 15q1-1 3 1 1 1 2 4 1 2-3 7-4 4-5 0-1-3 0-4 1 0 2-3 1-4 1-5z" fill="#738e48" stroke="#738e48"/> <path d="m610 254h-2v-4q0-3 3-4 2-2 4-1 3 1 2 3t-3 4q-3 2-4 2z" fill="#1f5c1d" stroke="#1f5c1d"/> <path d="m798 310 1 7q1 7 2 9v10q-1 8-3 12t-2 5v1t-1 2q0 1-1 1t-1-1q-1-1-7-10-6-10-4-14v-4h1l1-1h1v1l1 1v2l2 2q0 2 1 3l1 1v2h1v1h1v3l1-3 1-2v-2q0-3-4-9-2-6-2-9l2-3v-1l3-4q3-4 4-2t1 2z" fill="#c08408" stroke="#c08408"/> <path d="m233 574 3-3-2 3q-2 2-3 3l-1 1h-1l1 1v1q0 1-1 1t-1 1-3 4-7 10-6 17q0 10 2 17 2 6 8 13 7 7 16 11 8 4 14 9 6 4 7 5 0 1 2 2 1 2 2 4 1 1 1 4v3l-1 3-1 2v1h-1l-1-1v-6q0-2 0-4 0-1-4-4-2-4-10-8-7-4-19-13-12-8-15-13-2-6-2-19t4-21 9-15l6-7q1 0 4-2z" fill="#090d20" stroke="#090d20"/> <path d="m383 244 1 1q1 1 2 0h1l-2 3q-1 2-1 4 0 3 3 4 2 2 5 1t3-1q1 0 1 2v1q0 1-4 1t-8-2l-4-3v2l-2 2v2h-1v1h-1v3h-1v4q-1 0-1 2v8l2 2 6 8q6 7 12 11t18 8 28 6q15 2 20 4 4 0 6 1h3v1h-2v1h-1v2h-2q-1-1-12-3-12-2-20-3t-13 1l-5 2-1 1h-1v2l4 3q2 3 2 6 0 4 0 5v1l-2 2v1h-1q0 1-3 2-4 1-8 1l-5-2h-1v1l-2 2v2l-2 2v3h2l5 3q5 3 6 6t1 10q-1 7-6 10t-10 3q-6-1-6-2-1 0-2-1h-1l-3 16q-2 16-2 28 2 12 4 17 3 5 6 6 2 2 14 1 11-1 13-1h2l1-1h4v2l-1 1h-2l-1 1-2 1-8 2q-8 2-12 12-2 9-2 26 0 16 2 22t4 8q1 2 1 3h1v1l1 1v1h2v1h1v1h-1v1h-1v1h-1v-1h-1v-1h-1v-1h-1v-2h-1v-1h-1t0-1q-1-1-5-9-3-8-4-21t3-27l4-14h-2q-2 0-6-2-5-2-5-3t-1-1-3-3q-1-3-4-13l-3-9v1h-1q-1 0-2 1t-9 1h-7v-1h-1v-1h-1v-1h-1v-1q0-2 0-6 0-5 1-8 1-2 2-2h1v-2h-4l-2-1-1-1h-7l2 2t1 2-1 8-6 8-12 3-10-1q-2 0-4-2-1-2-2-2t-1-6l-1-6h1-3l-1 1h-1v2h-1v1h-1l-5 8q-5 8-5 10v1l-1 1v2h-1v-2h-2v2l-2 2v-3l2-4v-1q0-1 4-8 4-8 11-13l6-5v-1h1v-1h2l2-1 1-1h-6l-3 1q-3 1-39 7t-79 17l-42 11h-3l-1 1h-1v-1h-1v-1h1v-1h-1l2-1 1-1h3l34-9q34-9 34-9h2l2-1 3-1h2l4-1q4-1 4-1h2q2 0 3-1h2l4-1q3 0 3-1h3q2-1 3-1h4l3-1 2-1h3q3 0 3-1h2l3-1h6l6-2h6l1-1h3q2-1 5-1h4t0-1h3l3-1h8t0-1h2l3-1 29-3q30-4 32-13t3-10v-2h1v-3l1-1q1-2 3-8t10-18l8-13 1-1q1 0 1 0v-1l1-1q1 0 2-1l1-1h1v-1h1v-2h-2l-1-1h-1l-3-1q-3-1-7-2l-4-2q-1-1-4-1l-2-1v-1t-1 0l-1-1v-1t-1 0q-1-1-1-1v-1t-1 0h-1q0-1-1-1h-1q0-1-2-3l-2-2q0-1-1-1v-1q-1 0-1 0 0-1-1-1v-1h-1v-1l-1-1-1-2v-1q0-1-1-2l-1-1v-2t-1-2q0-2-3-2h-4v-2h1l1-1h2l1-1h1q1 0 2-4v-4l2-2v-1l1-1v-2q1 0 1 0v-1l4-6q4-6 4-6t1-1zm22 86q3-5 7-4 3 2 3 8 0 5-5 6-5 2-7 1-3-1-1-4 0-3 3-7zm-15 51-1-1h-2v-1l-1-1v-4l3-10q3-9 8-8 5 2 7 6t2 8q-2 5-6 8-4 4-6 4-3 0-4-1zm-46 16-2-1h-6v-2h7l17-2q17-2 14 8-2 10-7 6t-13-6q-9-2-10-3zm-30 25h-2v-1h-1v-1h-1v-11l3-3q2-4 12-4 10-2 13 2 2 4 2 7t-4 7q-3 4-8 4-5 2-9 1t-5-1zm46 2h-4l-1-1h-1v-2h-1v-5q1-5 2-7 1-1 5-1 3 0 7 3 5 4 4 7-1 2-4 4t-7 2z" fill="#030904" stroke="#030904"/> <path d="m742 271v1h-6q-7-1-7-2t6-4 7 0q0 4 0 5z" fill="#40b0de" stroke="#40b0de"/> <path d="m626 208v2l-2 4v1l-1 2q-1 2-2 5l-2 4q-1 0-2-2l-1-2 1-1v-1h2l1-3q2-3 2-4v-1l2-2v-1l1-2q0-2 1-2t1 1q-1 1-1 2z" fill="#7f9672" stroke="#7f9672"/> <path d="m272 289h3l-2 5q-1 5-2 6l-1 1v10l2-2v-2l2-2v-1q0-1 2-3v-2h1v-1h1v-2h1v-1h1v2l2 2v7l-4 6q-4 7-5 8l-1 1v2l-2 2v1h-2v-2h-1v-2l-1-1v-2l-1-1q-1-2-1-4-2-1-2-10t2-12l2-2h2q3 0 4-1z" fill="#ad7a0a" stroke="#ad7a0a"/> <path d="m919 101v-1h1q2 1 2 2t1 1l1-1t1 1 1 8-3 13-3 15-2 14-7 12-13 10l-8 3-1 1h-1v-2h-1l-1-1h-2l4-1 3-1 7-3q7-3 11-9 5-6 5-10 2-3 2-13t3-15 3-12q0-6-1-8t-2-3z" fill="#101619" stroke="#101619"/> <path d="m711 259v-3l2 2q3 2 3 3v1h1v1h1v3h-3t-1-2l-2-2h-1v-3z" fill="#41b8ed" stroke="#41b8ed"/> <path d="m756 216h1v2q1 1 0 3l-1 2v5l-1 2q0 2-1 2t-1-2l-1-2v-4q-2-4 1-6 2-2 3-2z" fill="#41b9e8" stroke="#41b9e8"/> <path d="m670 315v-1h2l1 1h1v5l-2 2-2 6q-2 7-3 9v2h-1v-1h-2l-2-2h-1v-6q1-5 2-8l2-2h1v-1h1v-1h1v-2q2-1 2-1z" fill="#be860f" stroke="#be860f"/> <path d="m382 276-2-1v-3q0-3 1-3t1-1q1 0 3 0 1 1 1 3-1 3-2 4 0 1-2 1z" fill="#4c9c4a" stroke="#4c9c4a"/> <path d="m229 299h1l-2 7q-2 8-3 9l-1 1v2h-1v-1h-1v-1q0-1-1-1v-1h-1v-3l-1-1q-1-1-1-4l-1-4h3l4-2q4 0 5-1z" fill="#835c06" stroke="#835c06"/> <path d="m647 268 1-2 6 1q6 1 10 1h5v1l-1 1v2h-2v1h-1v1h-1v1h-1q0 1-1 1-2 2-4 0h-3v-1h-1v-1q0-1-4-3t-3-3z" fill="#b67c06" stroke="#b67c06"/> <path d="m809 286 1-2h2q1 0 4 1h2v3l1 2 1 3v9h-2v-1l-2-2v-1l-1-1q-1-1-3-4l-2-3v-1h-1v-1q-1-1 0-2z" fill="#8c6107" stroke="#8c6107"/> <path d="m736 186h1l3 10q2 9 3 10l1 2v3l-2-2q0-1-4 1-5 2-8 2-2 0-8 2l-5 2-2 2h-2l1-14q1-14 7-20 5-5 6-6 0-1 1-1 2 0 4 3 1 2 2 4t2 2z" fill="#42b4e0" stroke="#42b4e0"/> <path d="m879 300v-1h1q0 1 2 1h1t1 1 0 2q0 1-10 17l-8 17-2 2v3l-2 2v1l-1-3v-4l-1-2 1-4q1-3 9-18 8-14 9-14z" fill="#b57b04" stroke="#b57b04"/> <path d="m339 337v-1h1l16 5q16 5 17 5h1l2 1 1 1h2v1l1 1v2h-2l-4 1-3 1h-1v1h1v1h1t0 1h1q0 1-1 1-2 0-3-2-1 0-10-1t-17 1l-9 2-1 1-2 1h-2l-1 1h-1v-1l1-2 1-1v-2l1-1q1-1 5-9l4-8h1z" fill="#be8107" stroke="#be8107"/> <path d="m702 276h2v8q0 7-1 7l-1 1q-1 2-2 2t-1 2 1 2q1 2 2 2h1v8h-1t-2-4q-2-3-4-2-2 2-4 5v3l1 2q2 2 4 0 3-1 4-2 1 0 1-1h1v5q-1 4-1 10v6h-1q-1-1-3 6-2 8-1 9t2-1 2-2l-1 14q-2 14-2 19t0 6v1h-3l-3-1-2-1h-2v-1q0-1-2-9t-2-14q0-7 0-14l-2-8v-2h-1l-2 2h2v2h-2v-1h-1v1q0 1-1 3 0 2-1 2-2 0-2 1v2h-1v1h-1v4h-1v1h-1v-2h-1v-1h1v-4h-2v-1q0-2-1-2h-1v-2t4-8l2-8 2-2v-5h-1l-1-1h-2v1t-2 1v2h-1v1h-1v1h-1v-2l1-2v-1q0-1 1-3 0-1-1-1h-2v-3q1-3 3-4 1 0 2-2 0-2 1-2 2 0 4 0h1v-1h1v-1h1l5-5q6-5 7-5h1v-1h1v-1h2v-1h1v-1h1v-1h1v-1h-2v-1l4-2q4-3 4-3zm-18 45q0-2 2-5 2-2 4 0t-2 4q-3 3-4 1zm14-6t1 0q1-1 0-1t-1 1zm-8 15h-1v-1l-1-1v-2q0-3 3-5 2-1 3 1 0 2 0 4-1 3-2 3-1 1-2 1z" fill="#7a8e49" stroke="#7a8e49"/> <path d="m538 166q1-2 4-2 4 1 2 3-1 1-4 1-2 0-2-2z" fill="#d1d3d1" stroke="#d1d3d1"/> <path d="m870 195-2 1h-2l-2 2h-2l-1 1q-1 1-13 7l-13 6h-3l-1 1h-1v2l1 1 1 2v2h3l2-2h2q2 0 3-1l1-1h2l1-1 2-1h2v1h-1v1h-2l-1 1-2 1h-2l-1 1q-1 1-4 2-3 2-2 7l1 4 1 2 1 1v5q0 1-1 2h-1v-1q0-1-3-9t-13-3-10 11l2 5v3l-1 1v1h-2v-2l-1-2v-2q0-2-2-5v-3h-1l-1 1-2 1h-1v1h-1v1h-1v-3h1v-1h1l1-1q1-1 2-1h1v-2l-1-3v-2h-2l-1 1h-2l-1 1q-1 1-3 1l-2 2h-2l-1 1h-1v-1h1l-1-1h-1v-1h2l2-2 5-2q5-3 5-6 0-2 0-4v-2h-1v-2l1-1v2l2 3q0 4 1 4l6-2q6-2 11-4t5-4q-1-2-1-4v-6 3l2 2q0 2 1 3v2l15-6q15-6 17-7l2-1h2l2-2h2q2 0 1 1zm-63 33-1-3 11-5q11-5 11-1 0 3-8 7-9 4-11 5-2 0-2-3z" fill="#829469" stroke="#829469"/> <path d="m597 360 3-1q2 0 3 2t1 3v1l1 1t-1 1-4 1h-5v-1h-1v-3l1-2q1-2 2-2z" fill="#4b9e49" stroke="#4b9e49"/> <path d="m760 254q0-4 2-2t1 4-2 2-1-4z" fill="#46b7e3" stroke="#46b7e3"/> <path d="m384 301-1-2h1q1 1 1 1 1 0 1 0v1t1 1q1 0 1 0v1l4 2q3 1 4 2l6 5q6 6 6 6v2t-1 0l-1 1v-1t-9-7l-8-7v-1q-1 0-2-1l-1-1q-1-1-2-2z" fill="#89864b" stroke="#89864b"/> <path d="m460 532h-6l-1-1h-1v-7q0-5 6-26 8-20 8-22 0-3 7-4 7 0 11-3 5-2 0 17-4 19-6 27t-4 13q-3 4-6 6-4 0-8 0z" fill="#6d4b08" stroke="#6d4b08"/> <path d="m405 330q3-5 7-4 3 2 3 8 0 5-5 6-5 2-7 1-3-1-1-4 0-3 3-7z" fill="#1e581b" stroke="#1e581b"/> <path d="m385 300h1q2 1 2 2v2t1 1h1l8 7q8 8 8 8v1l-8 13q-8 12-10 18t-3 8l-1 1v3h-2v-1h-1v-1h-1l-2-2h-1v-1h-1v-1h-2v-1h-1v-1h-2v-1h-1v-1h1l3-1 4-1h2v-2l-1-1v-1h-2l-1-1-2-1h-1q-1 0-17-5l-16-5h-1v1h-1v-2l2-2v-1q0-1 8-12l7-12q1 0 1 0v-1h3l3-1 10-1q9-1 12-2h2v-1q-1 0-1-1v-1z" fill="#775402" stroke="#775402"/> <path d="m330 73h5v1h1v1l-1 1v1h-3q-4-1-10-1-7-2-8 0-1 0-8 3-8 3-20 3-13 0-15 3-1 3-10 9-8 6-19 8l-11 3v-2h1l2-1h-7v-1l10-2q10-1 18-6 7-4 12-10 5-5 19-5t22-4q7-4 12-2 6 0 10 1z" fill="#11181b" stroke="#11181b"/> <path d="m306 235q1-6 2-6t1 5q-1 5-1 6-1 2-2 2 0-1 0-7z" fill="#42b8e6" stroke="#42b8e6"/> <path d="m247 267v1q-1 0-2 2-2 1-2-4l1-4 1-8q1-8 4-5t5 5q0 2-3 8-3 5-4 5z" fill="#3fbaf1" stroke="#3fbaf1"/> <path d="m690 614 4-20 4 7q2 7 4 15 2 9 1 16-1 8-2 10t-3 4q-1 0-2 1l-1 1h-2l-2 2h-3l-1 1h-1v-8q0-8 4-29z" fill="#949495" stroke="#949495"/> <path d="m794 285q2-1 2 5 1 6 0 6t-2-2q-2-3-2-6 0-2 2-3z" fill="#bd8208" stroke="#bd8208"/> <path d="m216 250v-1l10 15q10 15 10 20 0 4-1 5t-1 2v1l-2 3q-2 3-2 3v1h-1q-1 1-5 1l-4 2h-4v-1l-1-1q-1-1-3-6t0-20l2-15v-4h1v-3q1-2 1-2z" fill="#3dbaf4" stroke="#3dbaf4"/> <path d="m812 39-1-2 8 6q7 6 9 9 2 2 3 2v1h1v-1l5-4q5-4 11-6 7-2 14-2 8 2 14 5 5 3 9 10 5 6 5 9 1 3 8 3 6 1 10 3 4 3 5 6t3 8q0 6 2 8 2 1 2 1v1h1v1h1v2h1v1h1v2h-3l-1-1v-1h-1l-1-1v-1h-1v-1h-1q0-1-2-2-2-2-2-9-2-6-5-9t-9-4q-5-1-7 1l-3 1v-2q0-2-2-6 0-4-4-9-3-4-8-8-6-4-14-4t-12 1-10 7l-6 6v2h-1v-1h-1v-1q0-1-2-2 0-2-6-8l-6-6h-1l-1-1q-1-1-2-1v-1t0-2z" fill="#0f1517" stroke="#0f1517"/> <path d="m677 412-1-5 4-3q3-4 8 0 6 4 6 8 0 3-3 4-3 2-8 1t-6-5z" fill="#4da24b" stroke="#4da24b"/> <path d="m742 209 2 2v1t1 2l1 2v3h-1v1h-2v1h-1v1h-1l-2 2h-1v-1h-1q0-1-1-2l-2-1 1 1q0 1 0 2h1v1h1l-2 2h-1v1h-1v1h-2l-2 2h-2v1h-1v1h-2v-1h-1v-1h-1v-1h-1v-1h-1v-1h-1v-1h-1v-1h-1v-1h-1v-2h-1v-1h-1v-2l3-3 5-2q6-2 8-2 3 0 8-2 4-2 4-1zm-14 8v-1h2v1h1v1h1v2h-1v-1h-1v-1h-1v-1h-1z" fill="#44b8ea" stroke="#44b8ea"/> <path d="m926 423 16 4q16 5 18 5h2l2 1 1 1h3l24 8q23 8 24 8h2l2 1 1 1h2l1 1v315h-315l6-2h3l12-4q12-2 22-8 11-4 19-10 7-5 13-11 4-6 6-9 2-2 2-3v-1t1 0v-2h1v-3l1-1 1-2v-16h2v-2h-1v-1q1 0 3-2 2-3 10-11 9-8 22-25t26-37q12-20 24-44 12-25 20-52 8-26 14-54 4-29 5-34 0-6 1-6t1-2 1-2h2v-1z" fill="#7d91f9" stroke="#7d91f9"/> <path d="m267 614 2-5h3l-1 3q-1 3-1 7t7 10q7 5 18 11t30 10 27 6q9 0 49 0t53 3 16 3h4l3 1h3v1h-7v1h-1v1h-1l-3-1q-3-1-14-3-10-2-54-2t-64-4q-19-4-32-8-14-6-23-12t-12-11-2-11z" fill="#070810" stroke="#070810"/> <path d="m403 200 1-1 5 7q5 6 5 7v1h-1t-5 3l-4 3t-8-4l-7-3 4-4q4-5 5-5h1v-1h1v-1h1v-1h1v-1h1z" fill="#40b8ea" stroke="#40b8ea"/> <path d="m592 574 2-20 2 1q2 1 8 13 4 11 7 20t3 18v10h-4v-1h-1q0-1-4-3t-13-2l-8 1v-4l1-1q1-1 3-6 2-6 4-26z" fill="#10af0d" stroke="#10af0d"/> <path d="m495 174v-12h13q12 0 11 2t0 8 4 9 11 3q7 0 11-3t5-5q2-3 2-6v-4l10 2q10 2 11 3l1 1v2q0 2-2 8t-6 13q-5 7-6 6 0-1-4 1-2 3-11 5-8 3-15 3-8 0-13-2t-10-6q-5-3-8-10t-4-18z" fill="#f9f9f9" stroke="#f9f9f9"/> <path d="m690 236q0 2-2 2-2-1 0-2 2-2 2 0z" fill="#4db4d4" stroke="#4db4d4"/> <path d="m704 226 2-1v3q0 3-1 6v4h-1t0-1-2-5q0-4 2-6z" fill="#45abd0" stroke="#45abd0"/> <path d="m756 728h4q4 0 2 0-3 2-10 5-6 4-6 7 0 4-2 6-1 2-10 4l-8 2h-6v-2h6l8-2q8-2 8-6-2-4 1-7t7-5q5-2 6-2z" fill="#070c26" stroke="#070c26"/> <path d="m273 338-1-2v-2l4-6q2-6 2 4-2 9-2 10-1 0-2-1 0-2-1-3z" fill="#bb850a" stroke="#bb850a"/> <path d="m586 309v13q-1 0-4-2l-3-2t0-3v-3l3-1q3-1 4-2z" fill="#6f5a0f" stroke="#6f5a0f"/> <path d="m807 228-1-3 11-5q11-5 11-1 0 3-8 7-9 4-11 5-2 0-2-3z" fill="#44b9ea" stroke="#44b9ea"/> <path d="m664 78q-1 0-1 1h-1q0 1 0 1-1 0-1 1h-1q0 1 0 1-1 0-1 1h-1q0 1 0 1-1 0-1 1h-1q0 1 0 1-1 0-1 1h-1q0 1 0 1-1 0-1 1h-1q0 1 0 1l-1 1h-1q0 1 0 1-1 0-1 1h-1q0 1 0 1l-1 1h-1q0 1 0 1t-1 1q-1 0-1 1v1h-2v2h-1v1h-1v1h-1q-1 0-1 1t-1 1q-1 1-1 2-1 1-2 1t-4 4l-2 4h-1v1h-1v1h-1v1h-1v1h-2v-9q0-7 5-12 4-5 15-11 10-6 11-7l1-1h3l2-2h3q2 0 2 0z" fill="#f4f5f5" stroke="#f4f5f5"/> <path d="m283 124 1 2v2l2 2v3l8 20q8 20 10 29 2 10 3 12l1 2v5h2v-4h1l1 1q1 0 2 1v2h1v-1h1v-1h1v-1h1l2-2 4-3q3-3 3-3h1l2-2h1v-1h1v-1h1l2-1q2-1 2 0t-1 1h-2v1h-1v1h-1v1h-1v1h-2v1h-1v1l-8 7q-8 8-8 13t0 8v2l2 6v3l2-2v-1h1v-1h1v-1l18-21q18-21 28-31t10-10v-1h1v-1h1v-1h1v-1h1v-1h1v-1h1v-1l3-3q3-2 3-2v-1h1v-1h1v-1h1v-1h1v-1h1v-1h2v1l-1 1v1h-1v1h-1v1h-1v1h-1v1h-1q0 1-3 3l-4 3v1h-1v1h-1v1h-1v1h-1v1h-1v1q-1 0-4 4-3 3-21 25-19 22-22 27-4 5-5 5t-3 3l-2 3v1l-2 2v7-1l2-2v-2h1q0-1 0-1h1v-3l1-1v-2h2v1l-1 1v3l-1 1-1 2v3l-2 5q-2 4-2 6v4l-2 2v3h-1v-1h-1l-3 4q-3 5-4 5h-1l-2-1h-1v-1h-1v1h-1v1h-1v1l-2 2v1t-1 0l-1-2q0-3-4 4-4 6-4 7v1l-2 2v1h1l-2 2h-2v-1h-1v-1l-1-1v-1h1v-3h1v-1h1v-1q0-1 7-12t11-27l4-16v-7 1l-2 2v1h-1v1h-1v1l-3 3q-2 4-2 4h-1v2h-1v1h-1v1h-1v1h-1v-1h-1v1h-1v-2h1v-1h1v-1l2-2v-1l4-4q2-3 3-4l1-1v-1h1v-1h1v-1h1v-1h1v-3 1h-1v1h-1v1h-1v1h-1v1h-1v1h-1v1t-2 2l-2 1v1h-1v1h-1v1h-1v1h-1v1h-1v1h-1v-4h1v-1h1v-1h1v-1h1v-1t6-6q6-5 4-17t-10-39l-8-26v-2l-1-2-1-1v-2q0-2 1-1zm23 111q1-6 2-6t1 5q-1 5-1 6-1 2-2 2 0-1 0-7zm0 18q3-9 4-9t0 4q0 4-3 9t-4 5 3-9z" fill="#6e904a" stroke="#6e904a"/> <path d="m727 240v1h1v1h1v1h1v1l3 4q3 4 2 5v1h-2v1h-1v1h-1l-2 2h-1v1h-1v1h-1l-2 2h-4v-2h-1v-1h-1v-1l-1-1q-1-1-1-1 0-1 0-4v-5h1v-1h1v-2h-2v1l-1 1v1h-1l-1 1h-1v-4h1v-1h1v-1l5-2q5-4 6-2 1 1 2 2z" fill="#41b9ee" stroke="#41b9ee"/> <path d="m242 364v-3l2 2q2 1 3 2h1l-2 7q-2 8-2 5v-3l-1-3q-1-3-1-7z" fill="#775905" stroke="#775905"/> <path d="m660 172-5-10h1q1 0 8 10 6 10 8 12t2 3v1h-2t0-1q-1-1-4-3l-2-2t-1 0q-1-1-5-10z" fill="#0e191b" stroke="#0e191b"/> <path d="m751 298q1-6 3-2 4 4 3 5 0 1-3 3-3 0-3-6z" fill="#bf8408" stroke="#bf8408"/> <path d="m613 319v-1h2v1l1 1v7l-1 1q-1 1-2 4-1 2-6 8l-4 5q-1 0-3-4l-2-4h1v-1h1v-1h1v-1h1l3-5q4-5 4-6h1v-1h1v-1h1v-2h1z" fill="#765604" stroke="#765604"/> <path d="m490 189v-1h2v4l5 6q4 6 13 11t21 5 17-2q6-2 7-2h1l2-2h1l1-1h1v1l-1 1v2l-2 2v1q0 1-12 28t-28 30q-15 2-26 3-10 1-22-1-13-2-24-4-12-4-21-8l-9-4v-1l-1-1v-2h1q2-1 2-2t1-1 1-1v-1h2v-2h-1l-1-1h-1l-1 1-2 1h-1v1h-1v1h-1t-4 6l-4 6v1h-1v8h1v1h2v-2l1-2v-2q0-1 2-2v-2h4q3 2 16 6 13 6 24 8t19 2q8 2 21 1t22-2 11-2l2-1h3v2l-2 2v2l-4 8q-2 7-3 9l-1 2v3q-1 0-4 9t-26 9h-22v-1h-4q-2-1-6-1-5-2-20-4-16-2-28-6t-18-8-12-11l-6-8-2-2v-6l4 4q2 3 4 3h2l2-1 1-1h1v-1l1-1 1-2v-7h-1v-1h-1v-1h-1v-1h-4q-4 0-5 1v1l-2 2v1h-1v-4h1v-3h1v-1h1v-2l2-2v-2l4 3q4 2 8 2t4-1 2-1q2-2 3-6l1-3t1-1v-2l-1-3v-2q0-2-3-3l-3-2v-2l10-8q10-8 14-8t8 2q3 2 16 1t22-4q10-4 14-9t5-8 2-4l1-2v-1l1-1 1-2v-1zm9 37-1-1v-1l2-4q3-4 5-3 3 0 2 3-1 4-3 5-1 1-3 2-2 0-2-1zm-9 0v1h-2q-3 1-6-1-2-1-3-4t1-3q2-1 6 3 4 3 4 4z" fill="#12b90d" stroke="#12b90d"/> <path d="m314 422h-2v-1h-1v-1h-1v-11l3-3q2-4 12-4 10-2 13 2 2 4 2 7t-4 7q-3 4-8 4-5 2-9 1t-5-1z" fill="#066b04" stroke="#066b04"/> <path d="m743 225 2-1h1q2 0 2 2t0 4v2t-3-3-2-4z" fill="#43b8e6" stroke="#43b8e6"/> <path d="m660 286h3v1h1v3q0 1 0 1 0 1 0 1t-2 1h-1v-1q-1 0-1 0 0-1-1-3l-1-2h1v-1h1z" fill="#ba850c" stroke="#ba850c"/> <path d="m612 539v-1h4l2 2h2v1h1v1l2 2q3 3 13 16 10 14 12 19t4 8 3 3v1h1v1h1v1h1v2l1 1v1h2v-4l1-4v-7h2v4h1v1l1 1v3q0 3-1 6l-1 3v3l-2 2v1h-2q-1 0-5-3t-9-3q-4 0-14 7-9 7-11 11l-2 4h-4q-1 0-4-3-4-3-8-5t-13-1l-8 2-1-1h1v-6 1h-1v1h-1v-2l2-2v-2l1-1q1-1 3-7t3-28l1-21h2l3 1h1v1l2 2v1l7 13q7 14 9 21 2 8 2 10v3l2 6v2l2-2v-4l1-2q1-2 1-13 0-12-4-26l-4-15v-3l-1-2-1-1zm42 52v1l2 2v4h-9q-5 0-11 3l-6 4h-1v1h-1l-2 2h-2v1-6l2-5q0-4 0-14t-4-24q-2-13-1-13 2 1 12 13 11 13 14 20t5 9 2 2zm-62-17 2-20 2 1q2 1 8 13 4 11 7 20t3 18v10h-4v-1h-1q0-1-4-3t-13-2l-8 1v-4l1-1q1-1 3-6 2-6 4-26z" fill="#040f04" stroke="#040f04"/> <path d="m102 190-2-2 3 1q3 1 3 2 1 1 1 1h1v1h1v1h1v1h1v1h1v1h1v1l12 11q13 11 28 29 15 19 27 38 12 20 14 22 0 2 1 3l1 1v2l2 2h4l1 1q1 1 3 1t2 1v1t-1 9v9h-1v2l-2 2v2h-1v-1h-1v-4l-1-2q-1-2-4-9l-3-6v-1q0-1-1-1l-1-1v-1h1v-1h-1v-2l-1-1q-1-1-5-10-6-9-20-30t-34-43l-19-21v-1h-1v-1h-1v-1h-1v-1h-1v-1h-1v-1h-1l-1-1q-1-1-4-3z" fill="#6b9253" stroke="#6b9253"/> <path d="m320 680-18-4 16 3q15 3 38 3t31 0 12 0h6v2h-6q-6 0-33 1t-46-5z" fill="#030616" stroke="#030616"/> <path d="m745 386v1h-1q-2-1-2-1h-1l-1-1v-2l-2-2v-1q0-2-9-18l-9-15 2-2v-1h1l3-4q3-4 4-4t5 10q5 11 7 25t3 15z" fill="#c18303" stroke="#c18303"/> <path d="m704 400 1-13h3l2 1 56 6q56 8 103 17t49 10 4 1h2l1 1h1v1h-2q-1 0-1 2t-1 2-1 6q-1 5-5 34-6 28-14 54-8 27-20 52-12 24-24 44-13 20-26 37t-22 25q-8 8-10 11-2 2-3 2v1h1v2h-2v3l-1-1-1-2v-3l-1-1q-1-2-3-8-2-7-3-17t2-15q2-4 3-4t8-8q8-8 11-15 3-6 3-11-2-5-6-10l-4-6q0-1-6-4-4-4-27-12t-49-14q-25-6-24-28 0-21 3-46 3-24 3-46t0-28q-2-7 0-20z" fill="#5670f7" stroke="#5670f7"/> <path d="m834 386v6l-1 2v2h-1q-1 0 0-8 2-7 2-2z" fill="#bc8409" stroke="#bc8409"/> <path d="m629 294v1q-1 0 0-5l1-5 2-4q3-3 6-2 4 2 3 4-1 1-6 6t-6 5z" fill="#bf850c" stroke="#bf850c"/> <path d="m792 719h1v1q-1 1-3 4t-6 9q-6 6-13 11-8 6-19 10-10 6-22 8l-12 4h-3l-6 2h-59l34-3q33-3 50-7 16-6 26-11t16-11q8-6 9-8t2-2v-1q1 0 2-3l2-2t1-1z" fill="#080c1b" stroke="#080c1b"/> <path d="m728 294q2 1 0 2-2 2-3 0t1-3q0-1 2 1z" fill="#b78611" stroke="#b78611"/> <path d="m254 217v2h-1q0 1-1-1 0-1 4-20 6-19 2-1t-4 20z" fill="#839467" stroke="#839467"/> <path d="m744 278q1 0 2 3 1 4 0 5-2 0-5 1t-4-2q-1-2 3-5 2-2 4-2z" fill="#bf8409" stroke="#bf8409"/> <path d="m702 308h1v1q-1 0-1 3-2 2-3 3-2 1-1 0 0-1-1-1-2 0-4-2l-1-2v-3q2-3 4-5 2-1 4 2 2 4 2 4z" fill="#bd840b" stroke="#bd840b"/> <path d="m286 433v-1h2v2h1v6q1 5 4 12 4 8 16 20t27 23q16 11 17 12l1 1h1v1h1v1h1v1h1v4l-9 2q-9 3-20 10t-19 15q-6 7-8 10-2 2-2 2v1l-1 1-1 2v1l-2 2v1h3v-1h1v-1h2v-1h1v-1h1l14-10q14-10 22-12 7-4 7-4h1l2-1 1-1h2v-1h1v1h1v1h1v2h-1v1h-1v1h-1v1h-2v1h-1l-8 9q-10 10-15 20-5 9-6 10l-1 1v2l-2 2v1h-1v-1h-1v1h-1v-1l1-1v-2l1-2 1-1v-1q0-1 9-14l9-13v-1h1v-1h1v-1h1v-1h1v-3h-5l-2 2h-2l-15 11q-14 10-15 11 0 1-2 2-2 2-2 2h-1v1l-1 2v2h-2v1l-1 1-8 13q-8 12-9 15t-2 5l-1 1h-4l-1-1h-3 6v-1h1v-1h1v-1q0-1 8-14 6-13 9-15 2-2 2-3t-1-1-1-2q-1-1 3-8l2-7 2-2v-2l1-1v-1h-1l-2 1h-4l-2 1q-1 1-10 3-8 2-22 9-15 6-15 7t-1 1-1 1-1 1-1 1v1h-1l-2 1h-1v1h-1v1h-1l-1 1-1-1h1v-1h1v-1h1v-1l1-1h1v-1l1-1h1t0-1l7-5q7-4 33-13t30-15q4-5 15-12 10-8 16-10t7-3l2-1h3v-1l-1-1v-1h-1v-1h-1v-1h-1v-1h-1q-1 0-15-10t-14-11-5-4q-4-3-13-15t-11-21l-2-9 2-2v-1z" fill="#040c0d" stroke="#040c0d"/> <path d="m383 264h4v1h1v1h1v1h1v7l-1 2-1 1v1h-1l-1 1-2 1h-2q-2 0-4-3l-4-4v-2q0-2 1-2h1v-1t-1 0v-2l2-1q2-1 6-1zm-1 12-2-1v-3q0-3 1-3t1-1q1 0 3 0 1 1 1 3-1 3-2 4 0 1-2 1z" fill="#061305" stroke="#061305"/> <path d="m576 314h2v-1h1v2q0 3 0 3h-1l-2-1h-3v-2h1l1-1h1z" fill="#647c43" stroke="#647c43"/> <path d="m670 240q1 0 2 1v1q0 1-13 10-13 10-17 10h-5v-1h-1v-1h1v-1h1v-1h2l2-2 14-8q13-8 14-8z" fill="#47b5e1" stroke="#47b5e1"/> <path d="m259 694 1-8 1 1h1l-1 7q-1 8 1 12t4 7q1 2 8 5 7 4 41 4t39-1l6-1h2v2h-6v1h1v1h2l-13 1q-12 1-24 1-13 0-29-1t-21-3q-4-2-8-6t-5-10q-1-5 0-12z" fill="#060815" stroke="#060815"/> <path d="m794 257h1l2 5q1 6 2 8l1 2v2h1v1h1v-1h2l2-2h2l2-2h1q1 0 2-1 1 0 0-5l-1-4 1-2v-1h2l1 5q1 4 2 4t2-1h2q1 0 0 1 0 2 0 2 0 1-1 2-1 0-1 4l-1 3h-1v1h-1t-1 0-4 3l-2 3-1 2q-1 1 0 2v2q0 1-2 2h-2v2l-1 2v3h1v3h-1v-1h-1v1h-1v-1l-1-1-1-2v3l-1 3q-1 4-1 5v1t-1-2-4 2l-3 4v1l-2 3q0 3 2 9 4 6 4 9v2l-1 2-1 3v-3h-1v-1h-1v-2l-1-1q-1-1-1-3l-2-2v-2l-1-1v-1h-1l-1 1h-1v4q-2 4 4 14 6 9 7 10 0 1 1 1t1-1q1-2 1-2l1 14q1 13 1 18 0 4 0 6v2q-1 0-10-2l-9-1v-11q-1-10-3-18-4-7-4-6-2 1 1 18l3 17q-1-1-16-2l-15-2v-1q-1-1-3-15t-7-25q-4-10-5-10t-4 4l-3 4h-1v1l-2 2 9 15q9 16 9 18v1l2 2v2l1 1h-7v-2l-2-2v-1q0-1-6-13l-6-11-2-2v-1h-1l-1-1h-1v1l-1 1v1t-3 3l-2 3v1h-1v2h-1v1h-1v1h-1v-5q1-5 1-14v-8h3v-2l1-2v-3h1l1 1h1l1 2q0 3 1 3v1h1v-1h1v-1h1v-1h1v-1h1v-1h1v-1h1v-1h1v-1h1v-2q0-2-2-5l-3-3h-1v-1h-1v-1h1v-2h1v-1h1v-1h1v1h1v1h1q1 0 2 2t1 2h1t0 1h1v1h4v-5l-2-2v-1q0-1-2-4l-3-3h-1v-1h1v-1h1v-1h1v-1h1v-1h1v1h1v2h1v1l2 3q3 3 3 4v1h5v-1h1v-1h1v-1h1v-5h-1t-3-5q-3-4-4-4h-1v-1h1v-1l1-1v-1l5-2q4-3 7-4t5-2 2-1v-1h-1q0-1-1-2v-1t1-2v-3q0-1 0-1 1 0 0 0-1-1-1-2v-1h1l1 1h2v-1l1-1v-2h1q1 0 2 1h1v1l1 2v2l6-1q5-1 6-2l2-1q2 0 2-1 1-1 2-1h3q2-1 2-2v-1l3-1q3-1 3-4-1-2-1-3v-1h1q1 0 1-1zm-3 12q2-3 3 2 0 5-2 3-2-3-1-5zm-6 4q1-1 4 3 3 3 0 3-2 1-4-2-3-2-2-3t2-1zm18 6h1l4-3q4-2 4-1t-1 1-1 2q-1 1-2 1t-2 1q0 2-2 2t-2-1q1-1 1-2zm-35 11v-1l-2-2v-5l6-2q7-2 8-1 1 0 2 3 1 4-4 7-6 3-8 2t-2-1zm26-5q2-1 2 5 1 6 0 6t-2-2q-2-3-2-6 0-2 2-3zm-36 5q-1-4 0-4 2 0 2 4 1 3 0 3t-2-3zm18 6h1v-1h1v-1h1q1 0 4-2t5 1 4 6q0 3-3 9-4 6-5 5-2-1-6-9-4-7-2-8zm-25 2q1-6 3-2 4 4 3 5 0 1-3 3-3 0-3-6zm28 28v1h-1q-1 0-2-3l-2-4-2-8q-4-7-4-9t3 1q3 2 6 8 3 7 3 10t-1 4zm-19-18q2 0 2 4t-2 2q-2-3-2-4 2-2 2-2zm3 56-1 2v3l-2 4v2h-2v-5l-4-12q-4-11-3-22 0-12 6 8 7 19 6 20zm27 4v2l-1 2q0 1-1 0-2 0-2-9-1-9 2-3 2 7 2 8zm4 7v-1 7q-1 7-2 7t-1-2q-1-2 1-6 2-5 2-5z" fill="#768e44" stroke="#768e44"/> <path d="m372 357v-1h1q1 0 1 1t1 1h1v1h1v1h1l2 2h1v1h1v1h1v2q-1 1-3 10t-32 13l-29 3-4 2h-2v-1l1-1v-1l2-2v-1q0-2 5-14l5-13h1l1-1h2l2-1 1-1 9-2q8-2 17-1t11 2 2 0z" fill="#765301" stroke="#765301"/> <path d="m477 454 3 2 2 2h3v2l-1 2v1h-1v1h-1v1h-1v1h-2l-1 1q-1 1-6 1-6 0-13-2t-8-4q-1-3-1-10t1-10q2-2 4-6t11-9 11-4q3 1 1 2-1 1-3 3t-5 2q-2 0-6 3t-4 9q0 5 3 7 2 3 7 3 4 0 7 2z" fill="#f20404" stroke="#f20404"/> <path d="m490 226v1h-2q-3 1-6-1-2-1-3-4t1-3q2-1 6 3 4 3 4 4z" fill="#011001" stroke="#011001"/> <path d="m838 261 1-1h3v2h-1v1h-1v2l-2 2v1t-5 8l-5 8v2h-6v-1l-2-4v-4h-1l1-3q0-4 1-4 1-1 1-2h2l2-2 4-2q4-2 5-2h1l2-1z" fill="#3fb9ef" stroke="#3fb9ef"/> <path d="m725 38 9-2-1 6q-1 6-9 2-8-3 1-6z" fill="#3cb2ea" stroke="#3cb2ea"/> <path d="m810 340v-1l2 2v1q0 2 1 4l1 1v3l1 2 1 1 3 13q3 13 3 16 0 2 0 6v4l-1 2v3h-2l-2-1h-2v-2l-1-2v-2q0-3-2-10t-3-22v-16q1-2 1-2z" fill="#c28303" stroke="#c28303"/> <path d="m735 19 1-1h5v1h1v1h2v2q0 3-2 14l-2 10-1 2-1 3v1h1v1h1v1h1v-1h1v-1q0-1 1-1h1q2 1 3 0h1v1q0 1-4 4-2 4-4 2t-13 58l-11 60-1 4v4h2v-1h1v-1h1v-1h1v-1l3-3q3-4 4-5l1-1v-1h1v1h1l2 3q2 4 2 4v1q0 1 0 1h1v1q1 1 1 1v2q0 1 1 2h-1q-1 0-2-2t-2-4q-2-3-4-3-1 0-1 1-1 1-6 6-6 6-7 20l-1 14v8q-1 1-1 8v14l-1 4v10l-2 30q-1 30-2 39v9h-1v8q0 9-1 14v9q-1 4-1 8v4h1v4l-1 13q-2 13 0 20 0 6 0 28t-3 46q-3 25-3 46-1 22 24 28 26 6 49 14t27 12q6 3 6 4h-1q-1 0-1 1-1-1-8-5-8-4-38-14t-45-12l-15-2v11q0 11 2 11 2 1 1 1t3 15 4 25-2 14q-2 5-9 8t-9 4-2 9q-1 8 0 8t0 1q-1 0-2 15t-2 15-1 2q1 2 1 3v1h2l3 1h5l-4 2h-6q-5 0-6-1 0-1 0-2 1-1-4-1l-6 1v2h1v1h1-4v-1h-1v-1h-1l2-2h1l1-1q0-1 2-1h2l4-2h1l-4-2h-7q-7 0-12 2-6 0-11 3l-5 2-2 2v1l1 2v1h2v2h-1l-1-1h-1v-1l-2-2v-4h1v-1h1l10-4q11-2 18-3 8-1 12 0h5v-3q1-4 1-14 1-10-2-10h-2l-1 1h-1v-2h4q4 0 4-7v-8h-1l-1 1-2 1h-1q-1 0-3 2h-3l-2 1h-2v-1l-1-1v-1h2l2-1 1-1h1q1 0 6-2 4-2 9-38 5-35 4-36-1 0-2-2-1-3-13-14l-14-14h-2v-1h-1v-1h-3v3l2 2v2l4 9q4 10 4 12v3l1 3v2h-1v-2h-1v1h-1v-1l-2-2v-2q0-2-2-8-2-7-8-18t-12-17q-6-5-9-10-3-4-4-4l-1-1h-1v-1h-1v-1l-1-2v-1h1l1-1 13-5q14-5 24-13 10-9 19-18 8-9 9-9t5-6q3-6 4-13 1-8 1-22v-13h-1l-1 1h-1q-1 0-1 1-1 1-8 1h-8l-2-2h-1v-1h-1v-1q0-1-1-4t2-8l3-4v-2h-2l-2-2h-10l2 2h1t1 5q0 5-1 9t-7 7-16 3q-9 0-13-2-5-3-5-8v-6h-2v1h-1v1h-2v1h-1v1h-1v1h-1v1l-1 4q0 5 4 6 4 0 4 1t1 1 1 4l-1 4v2h-1v1h-1q0 1-2 1l-2 2h-4v1l-2 2v1h-2v-1l1-1v-1h-2v-1h1v-2q0-1 1-10 1-10-3-32t-10-22h-6v-1h-1v-1h-1v-1l-1-1v-1h4v1h5q3 0 4-1t1-1h1v-2h-1 3l2 2v3l1 2q1 2 1 3v4h23q3 0 7 1h9q5 1 7 1h13q1 0 9 1l7 1h11v-1q0-1 0-6t2-19l1-14v-2q1-1 1-6v-10q0-6 1-10v-23q1 0 1-7v-17q0-9 1-19v-14q1-3 1-6v-10q0-6 1-8v-7q1-6 1-9v-2h-1l-3 1q-3 1-9 1h-6l-1-1v-1h-1l1-1h7q5-1 9-1 3-2 4-9 2-7 12-68 12-61 8-63-3-2-10-3t-10 0q-2 2-6 7-4 6-23 26-18 20-31 36l-13 16h-1v2h1l11 6q10 6 11 6h1v13h-1v-1h-2v-1l-1-1v-2q0-3 0-4t-11-8l-11-6h-1t-3 6l-4 4v1h-1v1h-1v1h-2v-1h-2l-1 1h-1v-1l2-2v-1h1v-1h1v-2l6-8q6-7 18-22 12-14 21-25 9-10 13-13 4-4 4-4t0-1h1v-1h1v-1h1v-1h1v-2h1v-1h1v-2h-1v1h-1v1h-1v1h-1v1h-1v1h-1v1h-1v1h-1q-1 0-5 5t-8 8-4 4q-1 1-9 9l-8 7v3h-1l-1 1h-1v-1h-2v-1h-1v-1h1v-1h1v-2h2v-1q0-1 1-1 1-1 1-1t1 0v-1h1q1 0 1-1v-1q1 0 1-1 0 0 1 0v-1h1q1 0 1-1v-1q1 0 1-1 0 0 1 0v-1q1 0 1-1 0 0 1 0v-1q1 0 1-1 0 0 1 0v-1q1 0 1-1 0 0 1 0v-1q1 0 1-1 0 0 1 0v-1q1 0 1-1h1q1-1 1-2 0 0 1 0v-1q1 0 1-1 0 0 1-1v-1q1 0 1 0v-1t1-1q1 0 1 0v-1t1-1q1 0 1 0v-1t1-1q1 0 1 0v-1l4-3q4-4 4-5 1-1 2-2 1 0 1-1t3-3q2-2 3-3h2l3-3q3-3 3-3l11-8q10-8 16-11t7-4zm-10 19 9-2-1 6q-1 6-9 2-8-3 1-6zm-111 348-1-4 37 2q36 2 42 2h6v9l-1 5q0 4-3 2-4-2-11-6-8-4-15-5-8-1-18 1-11 2-20 6l-10 4v1h-1v1h-1l-1 1h-1v-7l-1-4q-1-5-1-8zm18 32h-1v-1h-1v-1h-1v-1h-1v-8l2-2v-1h1q1 0 1-1t10-4q11-3 15-2t6 3q3 2 2 8 0 5-1 5t-4 3q-2 2-4 4-3 0-12 0t-10-1-2-1zm45-6-1-5 4-3q3-4 8 0 6 4 6 8 0 3-3 4-3 2-8 1t-6-5zm-60 17q0-5 3-4 4 1 3 4t-3 4q-3 1-3-4zm16 96h-1v-2h-1v-1h-1v-1h-1v-1h3l2-2 11-4q11-5 11-6t6-4q6-4 10-8 3-4 13-14 9-10 8 34-2 45-5 45-4 1-12-5-9-4-20-11-10-7-10-8-1-1-2-2-1 0-1-1t-1-1-1-1-3-4q-4-2-5-3zm55 41q4-1 3 5t-1 5q-2-1-4-6-2-4 2-4zm2 48 4-20 4 7q2 7 4 15 2 9 1 16-1 8-2 10t-3 4q-1 0-2 1l-1 1h-2l-2 2h-3l-1 1h-1v-8q0-8 4-29z" fill="#06080a" stroke="#06080a"/> <path d="m592 687 9 1h-1q-1 0-33 0t-40-1q-9-2 23-1 32 0 42 1z" fill="#030615" stroke="#030615"/> <path d="m647 450h-11v-1h-1v-1h-1l1-4q1-5 2-7 2-3 7-3 4 0 7 3 3 2 3 7-1 4-4 5-2 1-3 1z" fill="#4ca24a" stroke="#4ca24a"/> <path d="m688 566q4-1 3 5t-1 5q-2-1-4-6-2-4 2-4z" fill="#2340d1" stroke="#2340d1"/> <path d="m699 257q1 2 0 3-2 2-4 0-1-1 1-3t3 0z" fill="#48b4db" stroke="#48b4db"/> <path d="m750 237q0 1 0 3t-5 6l-5 4h-1t-3-4l-2-3h-1v-1h-1v-1h-1v-1h-1v-1q0-1-1-1v-1h-1v-3l2-2 4-2q4-2 6-2t5 4q4 4 5 5z" fill="#3fbaf1" stroke="#3fbaf1"/> <path d="m499 226-1-1v-1l2-4q3-4 5-3 3 0 2 3-1 4-3 5-1 1-3 2-2 0-2-1z" fill="#011101" stroke="#011101"/> <path d="m788 220h1q-1 1-13 9l-12 7v1h-1v1h-2v1h-1v1h-1v1h1v1h6l10-5q10-5 10-6 1-1 2 0h1l1 1h-1v2q-1 1 1 3 1 3 4 1 4-2 5-2h1v1q0 1-1 2v1h-1l-2 2h-2l-1 1h-1l1 5q1 5 2 7v2h-1q0 1-1 1h-1v-2q0-1-2-5-1-5-6-2l-5 3h-2l-2 2h-1v1l6 6q6 5 6 6h1v1q0 1-2 2h-2v-1q-1-1-6-7t-7-5q-1 1 1 3l3 3 2 3q2 4 3 4l1 1q0 1-2 1l-2 1v-1q0-1-4-6t-5-5q-2-1-4 1-1 1-1 5l1 4h-1q-1-1-2-1h-1v2l-1 1v1h-1q-1 0-1 2l-1 1-1-1q-2-1-2 2 0 4 1 4h1v1q1 1 1 2h1v2h-2q-2 1-5 2t-7 4l-5 2v1l-1 1v1h-1v1h-1q0 1-2 3l-3 2h-1v1h-1v1h-1v1h-1v1h-1v1l-1 2q-1 2-2 3v2h-1v1h-1v1h-1v2h-1v1h1v1l-2 4q-2 3-2 4 0 0 0 1v1l-1 1v1h-1l-1-1h-1v3l-1 2v2h-2v-9q1-9 2-39l2-30h1l2 2q1 2 1 2h3v-3h-1v-1h-1v-1q0-1-3-3l-2-2v-4l1-4h1l1-1h1v-1l1-1v-1h2v2h-1v1h-1v5q0 3 0 4 0 0 1 1l1 1v1h1v1h1v2h4l2-2h1v-1h1v-1h1l2-2h1v-1h1v-1h2v-1q1-1-2-5l-3-4v-1h-1v-1h-1v-1h-1v-1h1v-1h1v1h2v1h1v1h1v1h1l2 3q3 4 3 4h1l5-4q5-4 5-6t0-3l1-1q1 0 2 2t1 1 2-1q3 0 3-1 1 0 1-1 0 0 1 0v-1h1v-1h2l8-5q7-5 8-5h1l1-1q1-1 2-1h1t1-1q0-1 2-1zm-16 23 1-1 7-3q7-4 7-1 1 4-4 7-4 3-9 4-4 1-6 0-2-2 1-4 2-1 3-2zm-12 11q0-4 2-2t1 4-2 2-1-4zm-18 17v1h-6q-7-1-7-2t6-4 7 0q0 4 0 5zm-22 17q-2 0-5-4t0-6 6 3q3 4 2 5-1 2-3 2zm24-10q1 0 2 3 1 4 0 5-2 0-5 1t-4-2q-1-2 3-5 2-2 4-2zm-16 16q2 1 0 2-2 2-3 0t1-3q0-1 2 1z" fill="#7a8e50" stroke="#7a8e50"/> <path d="m445 440 1-1h1v1l-1 1v10q0 8 1 11 1 2 2 3 1 0 3 2 2 3 6 4t-2 19-8 24-1 11 2 7q1 3 9 4 8 0 12-1 5-1 8-9 4-7 7-24 3-18 7-29 3-11 13-13 10 0 16-3 5-3 6-4 0-1 1-1t1-1 5 1 12 2q8 0 12 1h6l3-1h6q6 0 9-1h2v3q0 4 1 12t-1 16q-2 7-6 17-6 10-13 18t-17 13q-9 6-26 10t-31 5-33 0q-18-1-28-5l-10-2-2-2h-2v-1h-1v-1h-1q-1 0-4-3l-4-3v-1h-1v-1h-2v-1l-1-1v-1h-1q0-1-1-3-2-2-4-8t-2-22q0-17 2-26 4-10 12-12l8-2 2-1 1-1h4l1-1 2-1h2l6-3q6-3 7-3h1l2-2h1z" fill="#11b90d" stroke="#11b90d"/> <path d="m252 649 11 7h2l2 2h2v1h1v1h1-4l-2-2h-1l-1-1q-1-1-8-4t-7-4q-1-1-4-2-4-1-9-4-5-4-9-9-4-6-4-12 0-5 2-8 2-4 7-8t11-5q7-1 7 0t-5 1q-4 0-10 5t-8 9-1 7 3 8 7 8 17 10z" fill="#060b24" stroke="#060b24"/> <path d="m304 218v-1 7l-4 16q-4 16-11 27t-7 12v1h-1v1h-1v2l-1 1h-1v-1l-2-2v-2h-1v-1h-1v-2l-1-1q-1-1-1-4-2-3 6-16l8-13 2-2v-1l2-2v-1h1v-2h1v-1h1v-1h1v-2h1t2-4l3-3v-1h1v-1h1v-1l2-2z" fill="#3dbbf5" stroke="#3dbbf5"/> <path d="m652 314q1 0 0 5 0 6-3 7-2 2-4-1-1-2 2-7 3-4 5-4z" fill="#bb850b" stroke="#bb850b"/> <path d="m472 675 2 1h4l2 1h2v2h-1l-1-1h-3l-2-1q-2-1-20-3t-49-3l-31-1h-1l16-2q15 0 28 0t33 3 21 4z" fill="#030616" stroke="#030616"/> <path d="m849 288 1 2v2h-2q-1 0-4-1l-4-1 4-5q3-5 4-2 0 3 1 5z" fill="#3eafdf" stroke="#3eafdf"/> <path d="m670 277q6-5 7-5 1 1-1 4 0 3-4 6-3 4-5 2-3-1 3-7z" fill="#bc8409" stroke="#bc8409"/> <path d="m470 448h-3v-1h-1v-1h-1q-1-1 0-4 1-4 2-5t5-2q5 0 6 4 0 4-2 6-2 3-6 3z" fill="#f2f1f1" stroke="#f2f1f1"/> <path d="m617 149 1-1h2v1h1l-16 25q-17 25-16 27 1 1 11 8 9 7 11 9 3 2 3 2v1h1v1h1l1 2q1 2 2 2l4 7q5 7 5 9v1l1 1 1 2v3q0 1 0 5t-1 10q-1 5-7 13t-10 11q-4 4-4 6l-1 1h-1q-1 1-5 3-4 3-4 4t-2 2l-2 1h-1v1h-1l-1 1-2 1h-1v1h-1q-1 1-4 2l-3 1v1h-1v1h-3l-1 1h-1v2h3l2 1h1l3 2q3 2 4 2l4 5q4 5 5 6l1 1v1l2 2 2 4q2 4 3 4l1 5q2 5 2 6v2l1 2 1 1v3h-3 1v2h-1l-1-1v-1q0-1-1-3t-3-2l-3 1q-1 0-2 2l-1 2v3h-3v-3l1-3v-2l2-1q1-2 4-2h2v-6l-1-1v-1h-2v1l-2 2q-1 1-7 3t-11 0q-5-1-5-2t-1-1-1-1-1-8q-1-6 1-8 0-3 4-5l4-3h3v-1l-3-3h-6q-5 0-9 0-4 1-4 0 0-2-5-1-4 1-13 2-9 0-10 5l-1 6-1 2-1 3v-1h-2l-1 1h-1v-3l2-4 6-22q8-23 14-40 7-16 21-43 15-27 30-50t16-25 2-2 1-1h1zm-77 170h-6v-3l8-24q8-23 9-23 1 1 14-6t13-7 1-1h1v-2h2v2h1v1q1 0 1 4v5h1l1 1 2-2v-10q0-1-3-4l-3-4h-2v-1h-1v-1h-1l-2-2h-4v2q0 2 2 3 1 1 1 2 1 1-6 6l-7 5h-2l-2 2h-2l-1 1h-1v-2l1-1 1-2v-2l8-15q8-15 14-26 5-10 10-8 4 3 7 4 3 2 3 3t-1 1-1 1-1 1-2 3q-1 4 2 10 2 6 5 6 4 2 9-1 5-2 7-3 1 0 1 1t1 1 4 10 0 11q-2 1-4 3 0 1 0 6t0 7-3 7q-4 6-5 6t-4 4q-4 4-14 10-9 6-21 12t-19 7q-6 1-12 2zm61-101q2 0 6 4 5 4 5 6 0 3-2 4-1 0-6 1-4 1-5-1-1-1-3-6 0-4 1-6t4-2zm-25 133-1-1h-1v-1l-2-2v-1l-1-2-1-1v-5l1-1q1-1 1-3v-1l6-3q5-2 7-3 2 0 4 4 2 3 4 7 3 3 3 6t-5 5q-5 3-9 3-5 0-6-1z" fill="#050c05" stroke="#050c05"/> <path d="m632 377v1h-6l2-2q2-2 3-1t1 2z" fill="#775d0f" stroke="#775d0f"/> <path d="m695 48h-1t-4 3q-3 2-3 3t-1 1q-1 1-2 2 0 1-4 5l-4 3q-1 1-1 1h-1t0 1q-1 1-1 1h-1t0 1q-1 1-1 1h-1t0 1q-1 1-1 1-1 0-1 1v1h-1v1h-1v1-4l2-2v-2l7-7q6-7 7-9 2 0 3-1l1-1 4-1q5-1 5-1z" fill="#eaebec" stroke="#eaebec"/> <path d="m300 330v-2l2 1q3 1 4 1h2l-2 7q-1 7-2 7h-1v-1l-1-1v-4l-1-2-1-1v-1q0-2 0-4z" fill="#bf8206" stroke="#bf8206"/> <path d="m249 300v1l-3 8q-2 8-3 9l-1 2v2q0 1-1 3-1 1-1-14v-15h3q3 0 5 2 0 2 1 2z" fill="#a77205" stroke="#a77205"/> <path d="m572 322h6l3 3v1h-3l-4 3q-4 2-4 5-2 2-1 8 1 7 1 8t1 1 1 1 5 2q5 2 11 0t7-3l2-2v-1h2v1l1 1v6h-2q-3 0-4 2l-2 1v2l-1 3v4l1 1v1h1v1h1v1h6q6 0 10 22t3 32q-1 9-1 10v2h-1v1q-1 0-1 1t-1 2q-1 0-10 3t-23 5l-14 1h-2l-2 1h-2q-2 0-9-1t-13-3q-7-2-8 0-2 2-9 5t-17 3h-13l-2-2h-2l-1-1h-1v-2h1l1-1 3-2q4-2 6-2h2l2-2-1-1v-1h-2l-3-1q-2-1-5-2l-3-2v-2h-1v-1h-1v-1l-2-2v-1h1l3-1q4-1 8-1h4l2-1 1-1h1v-1h-1v-1h-1v-1t-4-3l-2-3-1-1v-2h3l6-4q7-2 12-2 5 2 6 2 2 2 8 0 5 0 20-4 15-2 25-3l10-1h1v-2l-1-1v-1h-3q-3 0-3-4-1-5-5-17l-4-12v-4h-1v-1h-2v-1h-1v2l1 3 1 2 3 12q3 11 4 16v4h-4q-4 0-15 2t-18 4q-6 2-10 2h-7v-1l1-1v-4l5-5q5-4 5-5v-4h-1l-1-1h-1v-1l-1-1v-2t4-5q3-5 4-5t0-3q0-3-2-4t-2-4 1-3q1-1 0-3-1-3 0-9l1-6 1-3 1-2 1-6q1-5 10-5 9-1 13-2 5-1 5 1 0 1 4 0 4 0 9 0zm23 74h-6q-1 0-1-1 0 0-1-5l-1-5 5-5q4-2 8-2t6 3q1 2 1 7t-3 7q-3 1-8 1z" fill="#12b80d" stroke="#12b80d"/> <path d="m221 348h1l3 30q3 30 4 30 0 0-4 1l-4 1v-11q-1-11-1-15 0-5 0-18v-17h1v-1z" fill="#765503" stroke="#765503"/> <path d="m783 269v1h-1q-1 0-2 1l-1-1q-1 0-3-4l-2-3-3-3q-2-2-1-3 2-1 7 5t6 7z" fill="#44b8e8" stroke="#44b8e8"/> <path d="m464 323h4l3 1h15q15 2 20 1l5-1h3v3l-1 1q-1 2-3 12-2 9-10 10-7 2-13 4-6 4-9 6-2 3-3 3t-2 1q-1 2-5 10-5 9-12 13-6 3-19 7l-13 2-2 1h-1v-1l1-1v-3q0-3 2-6 0-4 8-18l6-15 1-1 1-2v-2l1-1v-1h-2v1h-1v2h-1v1h-1v2h-1v1h-1l-6 14q-8 14-9 22t-4 9q-2 2-3 2h-2l-1 1h-1v4h2l2-1h2l12-4q11-2 21-5 11-3 15-6t9-11q4-8 9-13 6-5 14-9 8-2 11-3t7-1h3l3 1h2v2h-1v1h-1l-2 2h-1l-1 1q-1 1-6 3l-6 4h-2l-2 2h-1v1h-1v3h8l4-2q5 0 11-1h6v1l-1 1v1h-1v1h-1v1h-1l-2 2q-1 0-2 2l-2 1h-1l-1 1h-2l-2 2h-3l-2 2v3h1v1h4q4 0 7 0h5v1h1v1h-1v1h-1v1h-1v1h-1v1h-2v1t-4 2q-3 3-13 8t-16 6-8-1h-2v-1h-1v3q0 1 1 2 2 0 2 1t-11 8-25 14l-14 7-2 2h-3v1h-2l-1 1h-2q-2 0-13 1-12 1-14-1-3-1-6-6-2-5-4-17 0-12 2-28l3-16h1q1 1 2 1 0 1 6 2 5 0 10-3t6-10q0-7-1-10t-6-6l-5-3h-2v-3l2-2v-2l2-2v-1h1l5 2q4 0 8-1 3-1 3-2h1v-1l2-2v-1q0-1 0-5 0-3-2-6l-4-3v-2h1l1-1 5-2q5-2 13-1t20 3q11 2 12 3zm-40 31-2 4h-5q-6 0-7-4 0-3 2-7 4-4 8-1t4 8z" fill="#11b80d" stroke="#11b80d"/> <path d="m639 103h2v1h1q2 0 2 0h1l-1 1h-1v1q-1 1-1 2 0 0-17 18-16 18-30 38t-28 44q-13 25-27 58l-14 33v3l-1 1v1h-3v-5l1-2q1-2 3-9l4-8v-2l2-2v-2h-3l-2 1q-2 1-11 2t-22 2-21-1q-8 0-19-2t-24-8q-13-4-16-6h-4v2q-2 1-2 2v2l-1 2v2h-2v-1h-1v-8h1v-1l4-6q4-6 4-6h1v-1h1v-1h1l2-1 1-1h1l1 1h1v2h-2v1q0 1-1 1t-1 1-2 2h-1v2l1 1v1l9 4q9 4 21 8 11 2 24 4 12 2 22 1 11-1 26-3 16-3 28-30t12-28v-1l2-2v-2l1-1v-1h-1l-1 1h-1l-2 2h-1q-1 0-7 2-5 2-17 2t-21-5-13-11l-5-6v-4h-2v2l-1 2-1 1v1l-1 2q-1 1-2 4t-5 8-14 9q-9 3-22 4t-16-1q-4-2-8-2t-14 8l-10 8v2l3 2q3 1 3 3v2l1 3v2h-1v1l-1-1h-1v-4q0-3-2-4h-1l-3-1q-3 0-5 3l-1 3h-2v1h-1v1h-1v-2h-2v-2h2v-2h1v-1h1l3-5q4-5 5-5t4-4 4-4q2-1 2-2l4-3q5-3 5-3h1v-1q0-1-5-7l-5-7v-3h-1v-2q-1-2-1-4v-4q0-1-1-2l2-10q1-11 5-18t11-13q8-5 13-8 4-2 7-6 3-3 7-6 4-2 4-2v-1h10v2h-1v1h-1v1h-3l-2 1q-2 1-3 1h-1v1h-1v1h-1v1h-1v1h-1v1h-1v1l12 1q11 1 16 4t5 4 1 1 4 6q4 5 4 6v1l2 2v3h1v1h1v-2l1-1 1-2 3-7q4-7 15-14 12-7 14-7 1 0 5-1h4v-1l-1-2-1-1q-1-1-4-2l-3-2v-1l-1-2v-3h5v2h1v1h1v1q0 1 1 1t1 1 10 6q9 5 18 11 10 5 12 10 4 4 6 12 2 7 2 9v2l2 4v-1h1v-1h1v-1l2-2v-1l14-17q14-18 16-22 4-3 4-4h1v-1h1v-1h1q1 0 1-1v-1t1 0v-1q1 0 1-1 0 0 1 0v-1q1 0 1-1l2-4q3-4 4-4t2-1q0-1 1-2 1 0 1-1t1-1zm-68 53 1 2v2l1 2 1 1v3h-2l-2-1-1-1h-2q-2 0-13-2-12-2-34-4l-23-1v-1l1-1v-2l2-2v-1l6-5q5-5 12-9t18-4q10 0 18 4t12 12q4 7 5 8zm-92-5h1v2l2 2v1l1 1v1h-5l-2 1q-3 1-6 1-2 0-30 10l-29 8-2 2h-3v-6l4-9q3-9 7-15 4-4 11-8t14-4q7-2 16 0 8 0 14 5 5 5 6 6t1 2zm16 23v-12h13q12 0 11 2t0 8 4 9 11 3q7 0 11-3t5-5q2-3 2-6v-4l10 2q10 2 11 3l1 1v2q0 2-2 8t-6 13q-5 7-6 6 0-1-4 1-2 3-11 5-8 3-15 3-8 0-13-2t-10-6q-5-3-8-10t-4-18zm-87 18-1-7 5-2q4-1 5-2l1-1h2q3-2 4-2h1l1 4q2 5 4 7 2 3 4 3 3 2 10 1 8-1 11-3 3-3 3-6 2-3 1-8-1-6-1-7v-1h2q2 0 4-1 1-1 11-2t10 0q1 1 1 9 0 9 0 12-2 4-6 12-5 8-15 14-10 4-21 5-10 1-18-3t-12-10-6-12zm130-26q1-2 4-2 4 1 2 3-1 1-4 1-2 0-2-2z" fill="#060c09" stroke="#060c09"/> <path d="m232 295 2-3h1q1 0 1 1 1 1 2 2 2 1 2 1v15q0 15 1 14 1-2 1-3v-2l1-2q1-1 3-9l3-8 1 3q0 4 1 4h1l-6 20q-6 20-5 26t1 6v4q0 4 1 7l1 3v3q0 3 2-5l2-7v-2q0-2 3-11l3-9v1l1 2v6q1 4 0 5v3q-1 2-1 4v3l-1 3q-1 3-1 6v4q0 2-1 10l-1 9v5h-1q-1 0-3 1h-4q-1 0-3-13-3-13-3 1v14h-2q-1 1-3 1h-2q-1 0-4-30l-3-30h-1v1h-1v17q0 13 0 18 0 4 1 15v11h-2l-3 1-2 1h-2v-1l-1-3q-1-3-5-32l-4-29v-14h1v1h1v-2l2-2v-2h1v2l1 1v2l2 3q0 4 1 6l1 1v3l1 2v1h2v-2l1-2v-4l1-2q1-2 1-4t-4-11l-4-8v-2l-2-2v-2h4v2h1l2 2h1v2h1v1h1v1h2v1l1-2v-2q1 0 1 1v1h1v1h1v-2l1-1q1-1 3-9l2-7v-1t2-3zm2 29v19q0 5 0 4l-1-1q-1-2-1-4-2-3-2-9t2-15q2-8 2 6zm-3 41h-1l-1-7q-1-8 0-8t2 8q1 7 0 7z" fill="#748e44" stroke="#748e44"/> <path d="m763 364-1 2v3l-2 4v2h-2v-5l-4-12q-4-11-3-22 0-12 6 8 7 19 6 20z" fill="#c28306" stroke="#c28306"/> <path d="m892 303h1l42 13q42 12 65 22 23 8 24 9v101h-2l-2-1-1-1h-1q-2 0-26-8l-24-8h-3l-1-1-2-1h-2q-2 0-9-2t-50-12l-43-10v-3q0-3 1-9l1-6v-6l2-12q0-12 10-32t14-25q3-5 4-5 2-1 1-2 0-1 1-1z" fill="#bf7e01" stroke="#bf7e01"/> <path d="m410 540 3-2v1h1v1h2l2 2h2l8 4q7 2 17 4t31 2q20 0 43-6 23-4 28-6t9 1q3 3 7 11 3 7 7 22 2 14 2 28v17h1v1h4v-1h1v-1h2v-1h1v-1h1v-1l8-2q9-1 13 1t8 5q3 3 4 3h4l2-4q2-4 11-11 10-7 14-7 5 0 9 3t5 3h2v-1l2-2v-3l1-3q1-3 1-6v-3l-1-1v-3l-1-3v-3q0-2-4-12l-4-9v-2l-2-2v-3h3v1h1v1h2l14 14q12 11 13 14 1 2 2 2 1 1-4 36-5 36-9 38-5 2-6 2h-1l-1 1-2 1h-2q-1 0-4 2t-22 6-58 4q-40 0-70-5l-30-4h-3l-3-1h-4q-3 0-16-3t-53-3-49 0q-8-2-27-6t-30-10-18-11q-7-6-7-10t1-7l1-3 1-1q1-2 2-5t9-15l8-13 1-1v-1h2v1h3v1h1v1h2l1 1q0 1 0 1h1v1l1 1 2 10q4 10 4 13v3h5v-1h1l5-4q6-5 11-5 4 0 6 0h2t0 1h1l5 5q4 4 5 5t1 2l1 1v1h2l2-1h1v-1l1-1q1-1 4-8 3-6 14-22t12-16 1-1 1-1 9-10q8-9 10-10z" fill="#979798" stroke="#979798"/> <path d="m720 288q-2 0-5-4t0-6 6 3q3 4 2 5-1 2-3 2z" fill="#c08408" stroke="#c08408"/> <path d="m779 326v1h-1q-1 0-2-3l-2-4-2-8q-4-7-4-9t3 1q3 2 6 8 3 7 3 10t-1 4z" fill="#be8306" stroke="#be8306"/> <path d="m375 292h1t0 1h1q0 1 1 1l2 2q2 2 2 3h1q0 1 1 1 0 0 0 1h1q0 1 1 1v1h-2q-3 1-6 1-4 0-4 2t-1 2q-1-1-1-2t-5 0h-5l-2 1-3 1h-2v-2h2v-1l1-1v-1h1v-1h1l4-6q5-6 7-6 3 1 3 1 0 1 1 1z" fill="#bf8105" stroke="#bf8105"/> <path d="m108 164 2 1h1v1h1v1h1v1h1v1h1v1h1l16 15q16 15 31 34t27 36q10 17 11 18l1 1v2l2 2v2h1v-1h1v-5l1-2q1-3 1-8l2-5v-4l1-1v-2h1l2 2h1v1h-1v4l-2 15q-2 15 0 20t3 6l1 1v1h1l1 4q0 3 1 4l1 1v3h1v3l-1 2v-1h-2v-1h-1v-1h-1v-2h-1l-2-2h-1v-2h-1q-1 0-1 1h-1v-1q-1 0-1 0v-1q0-1-2-1t-3-1l-1-1v-8l-1-1q-1-1-7-11-6-11-22-34l-16-23v-1l-2-2v-1h-1v-1h-1v-3 1h1v1h1v1h1v1h1v2h1v1h1l12 16q12 15 20 27t8 13v1h1v1h1v2l2 2v2h2v-3l-2-2v-1l-2-2v-1q0-1-10-16-8-15-26-39t-33-40l-15-16h-1v-1h-1v-1h-1v-1h-1v-1h-1v-1h-1q0-1-2-3z" fill="#688f43" stroke="#688f43"/> <path d="m256 369 1-6 2 6q1 6 1 11t0 6l-1 4q-1 5-2 8l-1 3v1h2l-2 1-3 1h-3v-5l1-9q1-8 1-10v-1t1-2 1-2q1 1 2-6z" fill="#727924" stroke="#727924"/> <path d="m838 250q1 0 2 4 0 3-6 5-5 3-5 2-1-1 3-5 4-5 6-6z" fill="#43b8e7" stroke="#43b8e7"/> <path d="m293 361 1-2v5l3 13q3 13 3 15v3t-1 1h-3q-3 0-5 1h-2v-2l1-2v-7q0-7 2-15v-8l1-2z" fill="#c08304" stroke="#c08304"/> <path d="m590 388q1-4 6-6 5-1 6 3 2 4-1 6-2 1-7 2-4 0-4-5z" fill="#4b9e49" stroke="#4b9e49"/> <path d="m510 764h1l2 2h2l4 2h-9l-2-2h-2l-2-2h-1v-1q-1 0-4-2-3-3-10-11-7-9-10-12-4-4-4-5t-2-2-13-3q-12-4-31-5t-45 0l-25 1h-2v-1h-1v-1h5v-1h1v-1l32-1q32-1 50 2 17 3 26 7t20 17q12 14 15 16 3 3 5 3z" fill="#060916" stroke="#060916"/> <path d="m856 342v1l-1 11q-1 11-1 12v1t-2 7q-2 6-3 6t-1-2v-2l-1-2q-1-2-1-6t3-12l3-9 2-3q2-3 2-2z" fill="#c18305" stroke="#c18305"/> <path d="m618 341v-1l2 2v6l-3 10q-3 10-3 10 0 1 0 2v4l-2 2v-2q0-1-1-3l-1-2v-1l1-5q1-5 2-10l1-5h1v-1h1v-4l2-2z" fill="#755d0a" stroke="#755d0a"/> <path d="m783 150v-1h1v2l-1 1-1 2v2l-2 2v2q0 1-4 12l-4 11-2 4v3h2l-2 1h-1v1q1 1 1 2v1h-2v1q0 1-1 3l-1 2v5q0 2 0 2h1l2-2h2l5-3q4-3 6-3h1v-1h1v-1h2l2-2h2v2h-2l-2 1-1 1h-1l-1 1q-1 1-10 5-9 6-11 12l-2 7v4h-2l-2-1v-5l1-2q1-2 0-3v-3q-1-1-1-1l2-3q2-3 4-9t1-6l1-1q0-1 0-1l1-1v-1l7-16q6-17 7-18l1-1v-2l1-1 1-2v-2h1z" fill="#6b985b" stroke="#6b985b"/> <path d="m104 443 34-11h1v1h-1v1h1v1l-21 7q-21 6-22 7l-2 1h-2l-2 1-1 1-24 9q-24 9-40 17t-17 8h-1l-2 2h-1l-2 2h-2v-4h1v-1h1v-1h2l1-1q1-1 2-1t27-12l25-11h1q0-1 0-1 1 0 2-1l2-1h1q1 0 3-2 3 0 36-11z" fill="#090806" stroke="#090806"/> <path d="m237 170 1-1v4l-2 4-4 16q-4 16-5 17v2h-2v-1q-1-1-1-1v-3l1-1q1-2 5-16l4-13 2-2v-3l1-2z" fill="#849362" stroke="#849362"/> <path d="m402 187v3q0 2 1 4v2h-1q-1 0-2-1l-1-1h-1q-2 0-2-1h-1l3-3q3-2 4-3z" fill="#4caec8" stroke="#4caec8"/> <path d="m716 326 2-4h1l3 3q2 3 2 5v2h-1v1h-1v1h-1v1h-1v1h-1v1h-1v1h-1v1h-1v1h-1v-1q-1 0-1-3l-1-2v-1l1-1v-1q0-1 0-1 0-1 2-4z" fill="#bc8408" stroke="#bc8408"/> <path d="m394 193h2q0 1 2 1h1l1 1q1 1 2 1h1l-1 1v1h-1v1h-1v1h-1v1h-1v1h-1q-1 0-11 10-9 8-22 22-12 14-22 29l-11 15h-2l-6 2h-4v-2l1-1v-1l2-2v-1h1v-1l9-10q8-11 24-29t27-29q11-10 11-11z" fill="#3fb9f1" stroke="#3fb9f1"/> <path d="m255 360v-2h1q0 1 1 3v2l-1 6q-1 7-2 6 0 0-1 2t-1 2v-3q0-3 1-6l1-3v-3q0-2 1-4z" fill="#b17f0a" stroke="#b17f0a"/> <path d="m768 290v-1l-2-2v-5l6-2q7-2 8-1 1 0 2 3 1 4-4 7-6 3-8 2t-2-1z" fill="#a47206" stroke="#a47206"/> <path d="m833 300 7-10 4 1q3 1 4 1h2v3l2 13q2 12-3 22t-5 11v1l-1 2-1 1v2h-1v1h-1v1h-1v-1h-1v-3l-1-1-1-2v-1q0-1-1-4l-1-3q0-1-1-1v-1q-1-2-3-8-2-5-3-10-1-4 6-14z" fill="#bb7e02" stroke="#bb7e02"/> <path d="m792 172v-1l6 3q7 2 14 2t12-2 7-1q3 2 3 3h-3v1h-1q0-1-1-1t-3 1l-3 1h-1t-2 1q-1 1-8 1-6 0-12-2-5-2-8 2-2 3-9 8l-7 4-2 1-1 1h-3v1h-2v-2l1-1v-1h1l2-1h2l2-2h2l6-7q6-6 7-7t1-2z" fill="#111719" stroke="#111719"/> <path d="m600 700 11-2h3l2-2h2v2h-2l-2 1-1 1h-2l-1 1q-2 1-14 3t-32 2q-21 0-66-6-46-6-36-6 9 0 36 4 26 4 58 4 33 0 44-2z" fill="#030616" stroke="#030616"/> <path d="m607 258h-1v-1t-1-1q-1 0-1-4v-5l1-3q2-2 7-2 6 0 7 1 1 2 1 6t-4 7q-4 2-6 2t-3 0zm3-4h-2v-4q0-3 3-4 2-2 4-1 3 1 2 3t-3 4q-3 2-4 2z" fill="#020c01" stroke="#020c01"/> <path d="m641 454h-7v-1h-1v-1h-1v-2l-1-2-1-1 1-5q1-4 3-7 1-3 4-4 2-1 8-1 5 2 8 4 4 2 4 8 0 5-4 8-3 2-6 4-2 0-7 0zm6-4h-11v-1h-1v-1h-1l1-4q1-5 2-7 2-3 7-3 4 0 7 3 3 2 3 7-1 4-4 5-2 1-3 1z" fill="#031003" stroke="#031003"/> <path d="m362 276h4q3 0 3 2 1 2 1 2v1l-1 1h-1l-1 1q-1 1-1 1h-2t0-1l-1-1q1 0 0 0v-2q-1 0-1 0 0-1-1-2h-1v-1q1-1 2-1z" fill="#ac780a" stroke="#ac780a"/> <path d="m65 461 24-9h2q2 0 3 2 0 2 1 2t9 30 16 51 19 43 23 40q13 18 28 36 14 16 26 28t20 19 12 9 6 3 3 2q0 1 3 2 2 1 3 3 1 1 3 2 2 2 2 4 0 1 2 1 3 0 4 1 0 0 10 4 10 3 10 5 0 1 14 9 13 6 16 7 4 1 2 1t6 4q8 3 8 4t6 2q7 0 28 1l20 1h-394v-278h2l2-2h1l2-2h1q1 0 17-8t40-17zm201 266t1 0q0 1-1 1 0 0 0-1z" fill="#788df9" stroke="#788df9"/> <path d="m408 192-1-7 5-2q4-1 5-2l1-1h2q3-2 4-2h1l1 4q2 5 4 7 2 3 4 3 3 2 10 1 8-1 11-3 3-3 3-6 2-3 1-8-1-6-1-7v-1h2q2 0 4-1 1-1 11-2t10 0q1 1 1 9 0 9 0 12-2 4-6 12-5 8-15 14-10 4-21 5-10 1-18-3t-12-10-6-12z" fill="#f9f9f9" stroke="#f9f9f9"/> <path d="m833 333q0 1 1 1l1 3q1 3 1 4v1l1 2 1 1v3h1v1h1v-1h2v2l-1 1v1h2v-2h3v-2l1-1q1-1 3 0h2l-3 9q-3 8-3 12t1 6l1 2v2q0 2 1 2t3-6q2-7 2-7t1 8v8h2v1l1 2v1h1v-1h1l-1 6q-1 6-1 9v3q-1 0-7-2l-6-1v-5q-1-5-2-12l-1-6-2 10v12h-6l-2-1-3-1h-5l-2-1h-1v-3l1-2v-4q0-4 0-6 0-3-3-16l-3-13v-7l2-2v1l1 1 1 2v3q2 3 2 5v2h1v1h1v-4l1-1 1-2v1h1v-1h1v2h1v8q-1 7-1 12v5h1v-1h1v-3l1-1 1-2v-2q0-1 1-6 1-6-2-15l-2-9h1q1 0 2-4 0-3 1-3zm1 53v6l-1 2v2h-1q-1 0 0-8 2-7 2-2z" fill="#798f47" stroke="#798f47"/> <path d="m648 347q1-1 3 1 1 1 2 4 1 2-3 7-4 4-5 0-1-3 0-4 1 0 2-3 1-4 1-5z" fill="#775807" stroke="#775807"/> <path d="m800 228h1l1-1h2v2l1 3v2h-1q-1 0-2 1l-1 1h-1q-1 0-1 1h-1q-1 1-4 1-3 2-4-1-2-2-1-3v-1h1l1-1h2l2-2q2 0 3-1l1-1h1z" fill="#44b8e9" stroke="#44b8e9"/> <path d="m822 178h1v1q-1 1-17 9l-16 9v-1t-1 0v1h-1q-1 1-1 1h-3v1h-1v1h-1q-2 0-6 3l-5 3h-2l-2 2h-1l-1 1h-1v-2l1-1 1-2v-3l1-2q1-2 1-3v-1h2v-1h3l1-1 2-1 7-4q7-5 9-8 3-4 8-2 6 2 12 2 7 0 8-1 2-1 2-1z" fill="#40b5e4" stroke="#40b5e4"/> <path d="m390 381-1-1h-2v-1l-1-1v-4l3-10q3-9 8-8 5 2 7 6t2 8q-2 5-6 8-4 4-6 4-3 0-4-1z" fill="#4ca24a" stroke="#4ca24a"/> <path d="m287 360-1 3v1t-1-12q-1-13 3-20 2-8 4-7 0 1-2 17-2 15-3 18z" fill="#c0850b" stroke="#c0850b"/> <path d="m856 304q-1-7 3-6 5 1 3 4 0 3-2 6-2 2-4-4z" fill="#b77f06" stroke="#b77f06"/> <path d="m326 452h-1v-1h-1v-1l-2-2v-11l1-3q2-3 7-4 4 0 8 1 4 2 6 5 2 2 2 6 0 5-2 7-2 3-8 3-6 2-8 1-1-1-2-1zm12-3-1 1h-3q-4 0-6-1h-1v-2h-2v-1l-1-1 1-3q1-4 3-6t7-2q5 2 7 4t0 6q-1 4-2 4t-2 1z" fill="#031103" stroke="#031103"/> <path d="m540 319h-6v-3l8-24q8-23 9-23 1 1 14-6t13-7 1-1h1v-2h2v2h1v1q1 0 1 4v5h1l1 1 2-2v-10q0-1-3-4l-3-4h-2v-1h-1v-1h-1l-2-2h-4v2q0 2 2 3 1 1 1 2 1 1-6 6l-7 5h-2l-2 2h-2l-1 1h-1v-2l1-1 1-2v-2l8-15q8-15 14-26 5-10 10-8 4 3 7 4 3 2 3 3t-1 1-1 1-1 1-2 3q-1 4 2 10 2 6 5 6 4 2 9-1 5-2 7-3 1 0 1 1t1 1 4 10 0 11q-2 1-4 3 0 1 0 6t0 7-3 7q-4 6-5 6t-4 4q-4 4-14 10-9 6-21 12t-19 7q-6 1-12 2zm67-61h-1v-1t-1-1q-1 0-1-4v-5l1-3q2-2 7-2 6 0 7 1 1 2 1 6t-4 7q-4 2-6 2t-3 0z" fill="#12b70e" stroke="#12b70e"/> <path d="m735 182-1-3h1q1 0 1 1t1 2v1h1t1 1v1q-1 1 0 2t1 2v1l4 11q4 11 4 13v1l1 1v1h1l1-1h2l2-2h1t1 1v1h-1q-1 0-3 2-3 2-1 6v4l1 2q0 2 1 2t1-2l1-2 2 1h1l1 3q0 2 0 3h1v1q-1 1-4 2-3 0-3 1t-1-1-2-2l-1 1q-1-1-5-5-3-4-5-4t-6 2l-4 2-2 2v3h1v1q1 0 1 1v1h-1v-1h-1v1h-1q-1-1-2-2-1-2-6 2l-5 2v1h-1v1h-1v-4h1l2-2h1l2-2q2-1 3-1v-1h1v-1h-1v-1q-1 0-3-3l-3-3v-1h-1v-1h-1v-6h2l-1 1v2h1v1h1v2h1v1h1v1h1v1h1v1h1v1h1v1h1v1h1v1h2v-1h1v-1h2l2-2h2v-1h1v-1h1l2-2h-1v-1h-1q0-1-1-1l-2-2h-1v-1h-1v-1h-1v-1h-1v-1h2v1h1v1h1l2 2 2 1q1 1 1 2h1v1h1l2-2h1v-1h1v-1h2v-1h1v-3l-1-2q-1-2-1-2v-4l-1-2q-1-1-3-10l-3-10q-1-1-2-4zm8 43 2-1h1q2 0 2 2t0 4v2t-3-3-2-4z" fill="#6c9048" stroke="#6c9048"/> <path d="m242 252v3l-1 3-1 2v2h-1v-1h-1v-2l-2-2v-2l-1-1q-1-1-6-10-5-10-7-13v-3l1-4q1-5 5-2 4 4 10 11t5 12-1 7z" fill="#3ebbf3" stroke="#3ebbf3"/> <path d="m838 278q5-8 6-8t0 3q0 3-5 9-4 6-5 5 0 0 4-9z" fill="#43b7e3" stroke="#43b7e3"/> <path d="m254 291v1h-1q-1 0-3-5t3-13q4-8 5-8t-1 12q-3 12-3 13z" fill="#41baed" stroke="#41baed"/> <path d="m360 424h-4l-1-1h-1v-2h-1v-5q1-5 2-7 1-1 5-1 3 0 7 3 5 4 4 7-1 2-4 4t-7 2z" fill="#076c05" stroke="#076c05"/> <path d="m654 158v-2l1 1v1h2v1h1v-1l2 4q2 3 10 13 9 11 13 13t5 2q2 0 2 1h-2l-1 1h1v1l1 1v1h1v1h1v1h1v1h1v1h1v1h2v2h-2v-1h-1v-1h-1v-1h-1q0-1-1-2l-2-1v-1h-1v-1h-1l-2-1h-1v1l1 1v1h1v1h1v1q2 2 2 4v1h1v1h1v2h-3v1l-1 1-1-2-1-1v-2h-1v-1q-1 0-5-7l-4-7h-2t0-1 0-1-8-12l-8-11v-1t-1 0v-2q-1-1-1-2zm33 47q0-1 0-1 1 0 1 0 0 1-1 1z" fill="#678e5a" stroke="#678e5a"/> <path d="m829 342v-2t1 1l2 9q2 8 1 14-1 5-1 6v2l-1 2-1 1v3h-1v1h-1v-5q0-5 1-12v-14q-1-5 0-6z" fill="#bf8406" stroke="#bf8406"/> <path d="m884 176h2l1 1h1v2h-6q-6-1-12-3-5-2-10 2-5 2-12 3l-8 1-4-2h-2l-2-2h-1v-2h5l2 1 1 1 8-1q8-1 12-3 4-4 14-1t11 3z" fill="#12171a" stroke="#12171a"/> <path d="m791 269q2-3 3 2 0 5-2 3-2-3-1-5z" fill="#46b6df" stroke="#46b6df"/> <path d="m785 273q1-1 4 3 3 3 0 3-2 1-4-2-3-2-2-3t2-1z" fill="#42b3e1" stroke="#42b3e1"/> <path d="m208 310t0 1h1v1l1 2v2l4 8q4 9 4 11t-1 4l-1 2v4l-1 2v2h-2v-1l-1-2v-3l-1-1q-1-2-1-6l-2-3v-2l-1-1v-11q1-9 1-9z" fill="#c18304" stroke="#c18304"/> <path d="m680 333 1-1h1v2l2 8q0 7 0 14 0 6 2 14t2 9v1h2l2 1 3 1h-8l-7-1q-8-1-9-1h-1v-3h-1v-1h-1v-4q0-5 2-14l1-8v-1h1v-4h1v-1h1v-2q0-1 2-1 1 0 1-2 1-2 1-3v-1l1-1q0-1 1-1z" fill="#74630e" stroke="#74630e"/> <path d="m682 240q2 0 4 1 2 2 0 5-2 4-5 0-3-3-2-4 1-2 3-2z" fill="#43b9ea" stroke="#43b9ea"/> <path d="m483 421q-3 0-3-1 0-2 0-3 1-1 3-1 3 0 3 2 0 3-3 3z" fill="#10970b" stroke="#10970b"/> <path d="m758 290-2-3 2-1q2 0 2 4 1 3 0 3t-2-3z" fill="#b7850d" stroke="#b7850d"/> <path d="m306 253q3-9 4-9t0 4q0 4-3 9t-4 5 3-9z" fill="#41b9ec" stroke="#41b9ec"/> <path d="m124 0h303t0 5q1 4-3 9t-4 8q2 2 2 10t-6 14q-5 6-15 11t-25 5q-16 0-18 2-3 2-10 6l-8 2-2 1h-8q-4-1-10-1-5-2-12 2-8 4-22 4t-19 5q-5 6-12 10-8 5-18 6l-10 2h-5q-6-1-12-3-7-2-12-6l-5-4h-1v1q0 1-5 6t-15 11q-10 4-21 6l-11 1h-4q-4-1-8-1-5-2-10-4-6-3-10-8-4-4-5-10t-19-9-24-7l-6-3v-1h-1v-1h-1v-7q0-5 6-12 7-6 24-15t18-9 4-6q2-5 10-12 8-6 9-7t1-1z" fill="#fdfdfd" stroke="#fdfdfd"/> <path d="m705 385v-2l9 1q8 0 13 1l5 1h10t2 1h1l15 2q15 1 16 2h3l9 1q9 2 10 2h5l6 2h8l2 1h3l2 1h5l3 1 2 1h6t2 1h3l6 1q6 2 7 2l43 10q43 10 50 12t9 2h2l2 1 1 1h3v4h-3l-1-1-2-1h-2q-2 0-18-5l-16-4h-1l-1-1h-2q-2 0-4-1t-49-10-103-17l-56-6-2-1h-3v-2z" fill="#050505" stroke="#050505"/> <path d="m810 37h1q0 1 1 1 0 0 0 1h1v1q-1 1-1 1h-1q-1-1-6-3t-17-2q-13 0-19 2t-13 7l-8 6-1 1h-1v1h-2l-1-1v-2h1v-1h1v-1h1v-1h1v-1h1l8-6q7-4 14-6t18-2 16 2q6 2 6 3z" fill="#12181b" stroke="#12181b"/> <path d="m420 355-2 1-2-1q-3 0-2-3 1-2 4-2 2 0 3 2t-1 3z" fill="#4b9b4a" stroke="#4b9b4a"/> <path d="m801 336v-7l1 1q2 0 2 4 2 3 2 6v4h1q1 0 1-1h1v15q1 15 3 22t2 10v2l1 2v2h-6l-6-2h-5v-2q0-2 0-6 0-5-1-18l-1-14v-1q0-1 2-5t3-12z" fill="#728f44" stroke="#728f44"/> <path d="m772 243 1-1 7-3q7-4 7-1 1 4-4 7-4 3-9 4-4 1-6 0-2-2 1-4 2-1 3-2z" fill="#44b8e9" stroke="#44b8e9"/> <path d="m760 308q2 0 2 4t-2 2q-2-3-2-4 2-2 2-2z" fill="#bb8409" stroke="#bb8409"/> <path d="m370 265v3q-1 4-2 4h-1l-1 1h-2l2-4q3-3 4-4z" fill="#3da3cb" stroke="#3da3cb"/> <path d="m326 156v1l-1 1-1 2v3l-4 13q-4 13-4 15v2l-2 4v2q-1-1-2-1l-1-1v-1l1-2v-4l1-2q1-1 5-14l4-12v-2l1-2 1-1v-2l2-2q0-2 0-1 0 2 0 4z" fill="#669144" stroke="#669144"/> <path d="m776 272v1q-1 1-6 2l-6 1v-2l-1-2v-1l-1-4q0-4 1-5 2-2 4-1 1 0 5 5t4 6z" fill="#41b9ed" stroke="#41b9ed"/> <path d="m699 42h2t-3 3l-3 3t-1 0h-2q-2 0-4 2h-2l-1 1q-1 1-3 1-1 2-7 9l-7 7v2l-2 2h1q1 1 4-3 3-3 4-4h1v1q0 1-2 2-2 2-5 6-4 3-11 11l-8 9h-1v1h-1v1h-2v-2h2v-2h1v-1h1v-1h2l2-2q1-2 1-3h1v-1h1v-1h1v-1h1v-1h1v-1l1-1v-1h-2l-2 2h-3l-1 1q-1 1-11 7-11 6-15 11-5 5-5 12v9l2-1q1-1 1-2h1v-1h2v2h-1v1h-1v1h-1v1h-1v1h-2v1h-1v1h-1v-1l-2-2v-11q0-6 5-12t14-12q10-6 17-9 8-3 11-9 3-7 9-12 5-6 12-9t9-4 4-1z" fill="#13191c" stroke="#13191c"/> <path d="m744 201-4-11h2l7 3q7 3 11 3h3q1 0-1 6t-4 9l-2 3h-1l-2 2h-2l-1 1h-1v-1l-1-1v-1q0-2-4-13z" fill="#3eb8ef" stroke="#3eb8ef"/> <path d="m803 279h1l4-3q4-2 4-1t-1 1-1 2q-1 1-2 1t-2 1q0 2-2 2t-2-1q1-1 1-2z" fill="#53afc8" stroke="#53afc8"/> <path d="m229 256-3-2-4-5q-4-5-4-7 0-3 1-3t7 10q5 10 3 7z" fill="#43b7e3" stroke="#43b7e3"/> <path d="m360 278h1q1 1 1 2 0 0 0 1h1v1l1 1q0 1 0 1h1v2q-1 1-11 14t-10 13v-1t-1 0-3 0h-3l-3 1-4 1h-2v-1l1-1 1-2v-2h1v-1h1l4-6q4-5 14-14 9-9 10-9z" fill="#be8003" stroke="#be8003"/> <path d="m394 239 3 1h1q2 1 2 4 0 4 2 4h1v1q-1 1-1 3 0 1-3 4l-3 3v-1q0-2-1-2 0 0-3 1t-6-1q-2-2-2-6l1-3h1v-1t1 0v-1h1l1-3q2-3 5-3z" fill="#075806" stroke="#075806"/> <path d="m344 312v1l-11 21q-11 20-11 21v1l-1 2-1 1v2l-2 2v-9l1-4q1-4 1-7t4-16l4-13h2l4-1 3-1h3q3 0 3 0 1 0 1 0z" fill="#906402" stroke="#906402"/> <path d="m690 330h-1v-1l-1-1v-2q0-3 3-5 2-1 3 1 0 2 0 4-1 3-2 3-1 1-2 1z" fill="#b98610" stroke="#b98610"/> <path d="m776 296h1v-1h1v-1h1q1 0 4-2t5 1 4 6q0 3-3 9-4 6-5 5-2-1-6-9-4-7-2-8z" fill="#c28304" stroke="#c28304"/> <path d="m147 148 1 1h1v1h1v1h1v1h1l2 2h1v1h1l19 19q19 20 29 32 10 13 10 13v1l2 2v1l1 1v1h2v-1l1-1v-4l1-1 1-2v-1l-1-1q-1-1-11-11l-10-11h-1v-1h-1v-1h-1v-1h-1v-1h-1v-1h-1q0-1-1-1t-1-1 1-1l1 1h1v1h1v1h1v1h1v1h1v1h1l9 9q9 8 10 8v1h1v1h1v1h1v1h1v-1h1t1 1v1h2v2q1 2 7 10 8 7 8 8v1h1v1h1v1h1v1h1v-3l2-4v-4h1v1h1v10q-1 4 1 7 1 2 2 2v1h1v1h1v1h1v1l2 2v1h1v1h1v-6q0-1 1-1 1-1 6-20l5-18 2-2v-2l2-2v-2 7l-4 14q-2 14-3 17l-1 3v4h1v-1h1v-1h1v-1h1v-1h1v-1h1l4-5q4-5 4-5h1v-1h1v-1h1v-1h1v-1h1l1-1h1l1 1v1h-1v2h-1l-1 1h-1v2h-1l-9 11q-10 11-10 14v8h2v-2l2-2v-1l1-1q1-1 7-10l6-9v-1l2-2v-1h1l1-1h1v-1h1v1h1v1h-1v1l-2 2v1l-2 2-8 13q-8 13-6 16 0 3 1 4l1 1v2h1v1h1v2l2 2v1l-2 2h1v1h-1v2h-2v-2h1v-1h-1v-1q0-1-2-3l-2-3v-1l-2-2v-1h-1v1h-1v3l-2 2v3l-1 3q0 3 1 3h2l-2 2q-2 3-2 12t2 10q0 2 1 4l1 1v2l1 1v2l-2 8q-2 7-3 7-2 0-2 2v2h-1v-1h-1v2h-1v1h-1v2h-1v-1l-1-2v-4q0-2 0-16 0-15-1-16h-2q-1 0-1-4l-1-3v-1q-1 0-1-2-2-2-5-2h-3t-1-1-3 0h-2v-4q0-1 1-2t1-5q0-5-10-20l-10-15v1t-1 2v2h-1l-2-2h-1l1-1v-2q0-2 0-4t-5-9l-5-8h-1v-1h-1v-1l-2-2v-1h-1v-1h-1v-1h-1v-1h-1v-1l-1-1v-1h1l1 1h1v1h1v1h1v2h1v1h1v1h1v1h1v1h1v1h1v1l2 2q2 2 3 3l1 1v1h1v1h1v1h1v1h1v1l1-1 1-2v-3h-1v-1h-1v-2h-1v-1q-1 0-13-18-14-18-30-36l-16-19h-1v-1h-1v-1h-1v-1h-1v-1h-1v-1h-1q0-1-1-1t-1-1 1-1zm95 104v3l-1 3-1 2v2h-1v-1h-1v-2l-2-2v-2l-1-1q-1-1-6-10-5-10-7-13v-3l1-4q1-5 5-2 4 4 10 11t5 12-1 7zm-13 4-3-2-4-5q-4-5-4-7 0-3 1-3t7 10q5 10 3 7zm18 11v1q-1 0-2 2-2 1-2-4l1-4 1-8q1-8 4-5t5 5q0 2-3 8-3 5-4 5zm7 24v1h-1q-1 0-3-5t3-13q4-8 5-8t-1 12q-3 12-3 13zm-19 1q1 0 1 0-1 0-1 0z" fill="#709354" stroke="#709354"/> <path d="m234 324v19q0 5 0 4l-1-1q-1-2-1-4-2-3-2-9t2-15q2-8 2 6z" fill="#be8407" stroke="#be8407"/> <path d="m734 299h2q1 0 4 4 3 5 3 5h1v5h-1v1h-1v1h-1v1h-5v-1q0-1-3-4l-2-3v-1h-1v-2h-1v-1l3-2q2-2 2-3z" fill="#c18305" stroke="#c18305"/> <path d="m803 598h1l4 6q4 5 6 10 0 5-3 11-3 7-11 15-7 8-8 8t-3 4q-3 5-2 15t3 17q2 6 3 8l1 1v3l1 2 1 1v13l-1 2-1 1v3h-1v1h-1v1h-1v-2l1-1v-2l1-2q1-2 1-7t-4-16-6-20 0-14q2-4 14-18 12-13 12-20t-4-13l-4-6q0-1 1-1z" fill="#0a0e21" stroke="#0a0e21"/> <path d="m611 439h2v1l-1 1v1h1l-3 3q-4 3-13 5t-9 20-4 27-10 19q-7 8-8 9-1 0-4 4-4 3-5 5t5 10 8 20q4 12 5 20 1 9 2 18v9h2v-1l1-1v1h1v-1h1v-1 6h-1l1 1v1h-1v1h-1v1h-2v1h-1v1h-4v-1h-1v-17q0-14-2-28-4-15-7-22-4-8-7-11-4-3-9-1t-28 6q-23 6-43 6-21 0-31-2t-17-4l-8-4h-2l-2-2h-2v-1h-1v-1h1v-2h1v1h1v1h2l2 2 10 2q10 4 28 5 19 1 33 0t31-5 26-10q10-5 17-13t13-18q4-10 6-17 2-8 1-16t-1-12v-3h-2q-3 1-9 1h-6l-3 1h-2l-1-1h-2l1-1h2v-2l14-1q14-2 23-5t10-3q1-1 1-2t1-1z" fill="#050d06" stroke="#050d06"/> <path d="m344 397-2-1h-6v-2h7l17-2q17-2 14 8-2 10-7 6t-13-6q-9-2-10-3z" fill="#2e4eee" stroke="#2e4eee"/> <path d="m733 670-2 2h-1l-2 1-1 1h-3v-2h1l2-2h2v-1h1v-1h1q1 0 5-5t3-12-3-8q-3-1-10-3l-7-2h-3q-4 0-4-1 1-1 11 1 10 0 13 2 4 2 4 3t1 1 1 8q0 9-2 12t-3 3-1 1-1 2q-1 0-2 0z" fill="#060a22" stroke="#060a22"/> <path d="m683 194v-1h1l2 1h1v1h1v1l2 1q1 1 1 2h1v1h1v1l5 5q4 5 4 8v3h-1v1h-1v3h-3v-1l-1-2v-1l-1-1q-1-2-3-6l-2-4q0-1-1-1v-1l-1-1v-1q0-2-2-4v-1h-1v-1h-1v-1l-1-1z" fill="#43b8e5" stroke="#43b8e5"/> <path d="m638 332q0-3 2-2 1 0 2 3 0 3 0 5-2 1-2-1-2-2-2-5z" fill="#7b6314" stroke="#7b6314"/> <path d="m800 213h1v1h1v2q0 2 0 4 0 3-5 6l-5 2-2 2h-2v1q-1-1-2 0 0 1-10 6l-10 5h-6v-1h-1v-1h1v-1h1v-1h2v-1h1v-1l10-6q11-6 11-7v-1t1-1h2q1-1 1-1l5-3q6-3 6-4z" fill="#46b7e5" stroke="#46b7e5"/> <path d="m304 399 3-1h6l-1 1-2 1h-2v1h-1v1l-6 5q-7 5-11 13-4 7-4 8v1l-2 4v3l2 9q2 9 11 21t13 15q5 3 5 4t14 11 15 10h1v1h1v1h1v1h1v1l1 1v1h-3l-2 1q-1 1-7 3t-16 10q-11 7-15 12-4 6-30 15t-33 13l-7 5t-1 1q-1 0-1 0v1t-1 1q-1 0-1 0v1t-1 1h-2l-6 7q-5 7-9 15t-4 21 2 19q3 5 15 13 12 9 19 13 8 4 10 8 4 3 4 4 0 2 0 4v6l-1 8q-1 7 0 12 1 6 5 10t8 6q5 2 21 3t29 1q12 0 24-1l13-1 25-1q26-1 45 0t31 5q11 2 13 3t2 2 4 5q3 3 10 12 7 8 10 11 3 2 4 2v1h1l2 2h2l2 2h-116l-20-1q-21-1-28-1-6-1-6-2t-8-4q-8-4-6-4t-2-1q-3-1-10-4-6-3-14-7t-8-6q1-2-8-5-10-3-10-3-1-1-4-1-2 0-2-1 0-2-1-1t-2-1q-1-3-3-4-1 0-3-3-3-3-5-4t-6-3-12-9-20-19-26-28q-15-18-28-36-12-18-23-40t-19-43-16-51-9-30-1-2q-1-2-3-2h-2l1-1 2-1h2l2-1q1-1 22-7l21-7h1l1-1h3l42-11q43-11 79-17t39-7z" fill="#5570f6" stroke="#5570f6"/> <path d="m176 347h26l4 29q4 29 5 32l1 3v1t-34 9l-34 9h-3l-1 1-2 1-34 11q-33 11-36 11-2 2-3 2h-1l-2 1h-1v2h-2v-1l1-1v-9q0-10 4-24 2-15 8-27t16-21q9-10 19-15t26-9 43-5z" fill="#765200" stroke="#765200"/> <path d="m738 186-1-3h1t1 1l7 4q8 4 14 4h5v1l-1 1t0 1l-1 1h-3q-4 0-11-3l-7-3h-2v-1q0-1-2-3z" fill="#0f1516" stroke="#0f1516"/> <path d="m790 368v2l-1 2q0 1-1 0-2 0-2-9-1-9 2-3 2 7 2 8z" fill="#bc8409" stroke="#bc8409"/> <path d="m792 256v3q0 1 1 3 0 3-3 4l-3 1h-1q0-1-6-6l-6-6v-1h1l2-2h2l5-3q5-3 6 2 2 4 2 5z" fill="#41baef" stroke="#41baef"/> <path d="m952 199h-1v1h-1v1h-1v1h-1v1h-1v1h-1v1t-2 2q-2 1-20 21-17 20-32 42l-16 21v2h-1v1h-1v2h-1v1h1v1h1v-1h1v-1h1v-1h1v-2h1v-1h1l12-16q12-16 13-16 1-1 1-1v-1l2-2v-1h1v-1h1v-2h2v2h-1v1h-1v1h-1v1h-1v2h-1v1q-1 0-14 20l-14 19v1q-1 0-9 14-8 15-9 18l-1 4 1 2v1h-1v-1l-2-2v2l-1 2-1 3v-1q0-1-2 2l-2 3h-2q-2-1-3 0l-1 1v2h-3v2h-2v-1l1-1v-2h-1v-1h1v-2l1-1 1-2v-1q0-1 5-11t3-22l-2-13v-4h4v2h1l1 1h3l3 1 2 1h3l14-20q13-20 23-32 10-11 11-12v-1l15-14q14-13 14-14h1v-1h2v-1h1v-1h1v-1h1v-1h1v-1h1l2-2q3-2 0 1-2 2-2 3zm-96 105q-1-7 3-6 5 1 3 4 0 3-2 6-2 2-4-4z" fill="#6d8a39" stroke="#6d8a39"/> <path d="m650 278 2-2t0 1h1l1 2q2 2 1 3 0 1-2 1-1 0-2 0h-1q0-1-1-2t1-3z" fill="#bc840a" stroke="#bc840a"/> <path d="m576 351-1-1h-1v-1l-2-2v-1l-1-2-1-1v-5l1-1q1-1 1-3v-1l6-3q5-2 7-3 2 0 4 4 2 3 4 7 3 3 3 6t-5 5q-5 3-9 3-5 0-6-1z" fill="#1d5a1b" stroke="#1d5a1b"/> <path d="m292 550h2l2-1h1v1l-1 1v2l-2 2-2 7q-4 7-3 8 0 2 1 2t1 1-2 3q-3 2-9 15-8 13-8 14v1h-1v1h-1v1t-1 0v1l-2 5q-1 6 2 11t12 11 23 12q13 4 32 8 20 4 64 4t54 2q11 2 14 3l3 1h4l34 5q34 5 71 5 36 0 57-4t25-6q3-2 3-3h2l2-1h3q2-2 3-2h1l2-1 1-1h1v8q0 7-3 7l-3 1h2q3 0 2 10 0 10-1 14v3h-5q-4-1-12 0-7 1-18 3l-10 4h-1v1h-1v4l2 2v1-5l2-2 5-2q5-3 11-3 5-2 12-2h7l4 2h-1l-4 2h-2q-2 0-2 1l-1 1h-1l-2 2h1v1h1v1h4-1v-1h-1v-2l6-1q5 0 4 1 0 1 0 2 1 1 6 1h6l4-2h-5l-3-1h-2v-1q0-1-1-3 0-2 1-2t2-15 2-15q1-1 0-1t0-8q0-8 2-9t9-4 9-8q2-4 2-14t-4-25-3-15-1-1q-2 0-2-11v-11l15 2q15 2 45 12t38 14q7 4 8 5l4 6q4 6 4 13t-12 20q-12 14-14 18-2 5 0 14t6 20 4 16-1 7l-1 2v2l-1 1v2l-2 2q-1 3-2 3v1q-1 0-2 2t-9 8q-6 6-16 11t-26 11q-17 4-50 7l-34 3h-131l-4-2h-2l-2-2h-1q-2 0-5-3-3-2-15-16-11-13-20-17t-26-7q-18-3-50-2l-32 1t-1 0v1h-6q-6 1-40 1t-41-4q-7-3-8-5-2-3-4-7t-1-12l1-7v-1l1-2 1-3v-3q0-3-1-4-1-2-2-4-2-1-2-2-1-1-7-5-6-5-14-9-9-4-16-11-6-7-8-13-2-7-2-17 2-10 6-17t7-10 3-4 1-1 1-1v-1l1-1h1v-1h1v-1h1l2-1h1v-1q0-1 1-1t1-1 1-1 1-1 15-7q14-7 22-9 9-2 10-3l2-1h2zm-40 99 11 7h2l2 2h2v1h1v1h1-4l-2-2h-1l-1-1q-1-1-8-4t-7-4q-1-1-4-2-4-1-9-4-5-4-9-9-4-6-4-12 0-5 2-8 2-4 7-8t11-5q7-1 7 0t-5 1q-4 0-10 5t-8 9-1 7 3 8 7 8 17 10zm481 21-2 2h-1l-2 1-1 1h-3v-2h1l2-2h2v-1h1v-1h1q1 0 5-5t3-12-3-8q-3-1-10-3l-7-2h-3q-4 0-4-1 1-1 11 1 10 0 13 2 4 2 4 3t1 1 1 8q0 9-2 12t-3 3-1 1-1 2q-1 0-2 0zm-261 5 2 1h4l2 1h2v2h-1l-1-1h-3l-2-1q-2-1-20-3t-49-3l-31-1h-1l16-2q15 0 28 0t33 3 21 4zm-152 5-18-4 16 3q15 3 38 3t31 0 12 0h6v2h-6q-6 0-33 1t-46-5zm272 7 9 1h-1q-1 0-33 0t-40-1q-9-2 23-1 32 0 42 1zm8 13 11-2h3l2-2h2v2h-2l-2 1-1 1h-2l-1 1q-2 1-14 3t-32 2q-21 0-66-6-46-6-36-6 9 0 36 4 26 4 58 4 33 0 44-2zm23 23h2v2h-3l-3-1h-5l-2-2h-1l-2-2h-1v-1l-2-2v-2l1-1 1-2v-1h1v-1l9-4q9-6 22-9t22-3 10 0q2 1 1 2 0 0-11 1t-24 4-19 8q-7 4-7 7 0 2 4 4 5 2 7 3zm62-21v-1l15 1q16 0 24 4 8 3 11 6 3 2 2 6t-6 7-15 5q-9 2-19 2t-15 0h-5 1l2-1 3-1h2l17-2q16-2 20-4t6-2h1v-1h1v-1h2v-1l2-2v-2h-1v-1h-1v-1h-1v-1h-2v-1h-1q0-1-5-3t-21-3q-17-1-17-3zm71 26h4q4 0 2 0-3 2-10 5-6 4-6 7 0 4-2 6-1 2-10 4l-8 2h-10l-8 1q-8 1-70-1h-62 59q59 0 68-1l9-1h14l8-2q8-2 8-6-2-4 1-7t7-5q5-2 6-2z" fill="#1d3eea" stroke="#1d3eea"/> <path d="m479 151h1v2l2 2v1l1 1v1h-5l-2 1q-3 1-6 1-2 0-30 10l-29 8-2 2h-3v-6l4-9q3-9 7-15 4-4 11-8t14-4q7-2 16 0 8 0 14 5 5 5 6 6t1 2z" fill="#12b70f" stroke="#12b70f"/> <path d="m606 295h1q0 1 0 2 1 2-4 8l-5 6v2h-2v2h-1v1h-1v-2l-1-4v-5l2-1q2-1 2-2t4-4q4-2 5-3z" fill="#b57f0b" stroke="#b57f0b"/> <path d="m625 368v-1h1v5q0 1-2 2v1l-2 2v1h-5v-1h1v-1l1-1q1-1 2-2l1-1v-1l2-2v-1h1z" fill="#7b6011" stroke="#7b6011"/> <path d="m811 41h1v1q1 0 2 1l1 1h1l6 6q6 6 6 8 2 1 2 2v1h1v1h1v-2l6-6q6-6 10-7t12-1 14 4q5 4 8 8 4 5 4 9 2 4 2 6v2l3-1q2-2 7-1 6 1 9 4t5 9q0 7 2 9 2 1 2 2h1v1h1v1l1 1t1 1q0 1 0 1h1v1q1 1 1 2t0 7q0 7-3 12t-3 15-2 13q0 4-5 10-4 6-11 9l-7 3-3 1-4 1q-1 0-11-3t-14 1q-4 2-12 3l-8 1-1-1-2-1h-2q0-1-3-3-2-1-7 1t-12 2-14-2l-6-3v1q0 1-1 2t-7 7l-6 7h-2l-2 2h-4v-3l2-4 4-11q4-11 4-12v-2l2-2v-2l1-2 1-1v-2h-1v1h-1v2l-1 2-1 1v2l-1 1q-1 1-7 18l-7 16h-5q-6 0-14-4l-7-4q-1-1-1-1h-1v-1q-1 0-1 0v-1q0-1-1-1-1-1-1-1v-1t-2-4l-2-3h-1v-1h-1v1l-1 1q-1 1-4 5l-3 3v1h-1v1h-1v1h-1v1h-2v-4l1-4 11-60q11-60 13-58t4-1 2-3v-1t1-1q1 0 1 0v-1l8-6q7-5 13-7t19-2q12 0 17 2t6 3z" fill="#fdfdfd" stroke="#fdfdfd"/> <path d="m342 597h-2q0-1 0-1t-1-1-7-1l-7-1v-2l1-2v-1h1v-1h1v-1l5-6q4-5 8-8 3-4 13-12 9-9 8-4-2 5-6 16-4 10-5 18-1 9-5 8-4-2-4-1z" fill="#10ab0e" stroke="#10ab0e"/> <path d="m649 288h-1t-2 4l-3 2v1h-1v1h-1v1h-1v7h1v-1h1v-1h1v-1h1v-1h1v-1h1l4-3q4-4 5-3t2 2h1q0 1 1 2t-3 4-6 6q-2 2-6 5l-4 4h-2v-1h-1v-1h-1v-1l-2-2v-1h-1v-1h-1v-1h-1v-1h-1v-1h-2v-4q1-2 8-10t9-7q3 1 3 1 0 1 1 2z" fill="#bb850b" stroke="#bb850b"/> <path d="m388 213h1l7 3q8 4 8 4 0 1-2 2-1 0-4 4t-4 4-5 5l-3 5h-1v1h-1v1q-1 2-1 2h-1t0 1-4 6l-4 6q-1 1-1 1h-1t0 1h-1v1h-1v1h-1v1h-1v1t-4 3q-3 4-6 6-4 2-5 2l-1 1h-2l-2 1h-9v-1h1v-2h1v-1h1v-2l8-11q8-11 22-27t15-18q1 0 1-1zm-39 56v1h-1q-2-1 0-2 1 0 1 1zm1 3t0-1 0 1z" fill="#3ebaf3" stroke="#3ebaf3"/> <path d="m695 191h-5q0-1-2-1-1 0-5-2t-13-13q-8-10-10-13l-2-4v-12h-1q-1 0-11-6l-11-6h-1v-2h1l13-16q13-16 31-36 19-20 23-26 4-5 6-7 3-1 10 0t10 3q4 2-8 63-10 61-12 68-1 7-4 9-4 0-9 1z" fill="#fcfcfc" stroke="#fcfcfc"/> <path d="m334 541 1-1h5v3h-1v1h-1v1h-1v1h-1v1l-9 13q-9 13-9 14v1l-1 1-1 2v2l-1 1v1h-1v3l-1 1-1 2v2h-3v-2l-1-1v-1q0-2-2-4v-2h-1v-1h-1q0-1 0-1h-1v-1q0-1-1-1h-3v-1h-1v-1h-3v-3l1-2v-1h1t2-2q2-1 2-2 1-1 15-11l15-11h2l1-1z" fill="#10a70e" stroke="#10a70e"/> <path d="m603 319 1-4 5-7q5-6 6-6 1 1 0 4-1 4-7 10-6 7-5 3z" fill="#ad7c0c" stroke="#ad7c0c"/> <path d="m654 591v1l2 2v4h-9q-5 0-11 3l-6 4h-1v1h-1l-2 2h-2v1-6l2-5q0-4 0-14t-4-24q-2-13-1-13 2 1 12 13 11 13 14 20t5 9 2 2z" fill="#10ae0d" stroke="#10ae0d"/> <path d="m246 328 6-20h1q1 1 1 16 0 14 0 16v3l-3 9q-3 9-3 11v2h-1q-1-1-3-2l-2-2v-1t-1-6 5-26z" fill="#c28303" stroke="#c28303"/> <path d="m665 396h9l2 2h2v2l-3 4q-3 5-2 8t1 4v1h1v1h1l2 2h8q7 0 8-1 0-1 1-1h1l1-1h1v13q0 14-1 22-1 7-4 13-4 6-5 6t-9 9q-9 9-19 18-10 8-24 13l-13 5-1 1h-1v1l1 2v1h1v1h1l1 1q1 0 4 4 3 5 9 10 6 6 12 17t8 18q2 6 2 8v2l2 2v5l-1 4v4h-2v-1l-1-1v-2h-1v-1h-1v-1h-1v-1q-1 0-3-3t-4-8-12-19q-10-13-13-16l-2-2v-1h-1v-1h-2l-2-2h-4v1l1 1 1 2v3l4 15q4 14 4 26 0 11-1 13l-1 2v4l-2 2v-2l-2-6v-3q0-2-2-10-2-7-9-21l-7-13v-1l-2-2v-1h-1l-3-1h-2l-1 21q-1 22-3 28t-3 7l-1 1v2l-2 2v1l-1 1v1h-2v-9q-1-9-2-18-1-8-5-20-2-12-8-20t-5-10 5-5q3-4 4-4 1-1 8-9 6-10 10-19t4-27 9-20 13-5l3-3h1v-1l2-2v-1h4l2-2q2 0 2-1h1v-1h1v-2l1-4q0-4-1-4t-1-1-4-1q-4-1-4-6l1-4v-1h1v-1h1v-1h1v-1h2v-1h1v-1h2v6q0 5 5 8 4 2 13 2 10 0 16-3t7-7 1-9q-1-5-1-5h-1l-2-2h1zm-24 58h-7v-1h-1v-1h-1v-2l-1-2-1-1 1-5q1-4 3-7 1-3 4-4 2-1 8-1 5 2 8 4 4 2 4 8 0 5-4 8-3 2-6 4-2 0-7 0z" fill="#11b80d" stroke="#11b80d"/> <path d="m522 302v2h3l-5 18q-6 18-6 20v3l-1 2v2h4l4-1h1v-2q0-2 1-4l1-3h1l1-1h2v1l-1 6q-1 6 0 9 1 2 0 3-1 0-1 3t2 4 2 4q1 3 0 3t-4 5q-4 5-4 5l-1-1h-1v1t-3-1l-2-1 2-1q1-2 2-2l2-2h1v-1h1v-1h1v-1l1-1v-1h-6q-6 1-11 1l-4 2h-8v-3h1v-1h1l2-2h2l6-4q5-2 6-3l1-1h1l2-2h1v-1h1v-2h-2l-3-1h-3q-4 0-7 1t-11 3q-8 4-14 9-5 5-9 13-5 8-9 11t-15 6q-10 3-21 5l-12 4h-2l-2 1h-2v-4h1l1-1h2q1 0 3-2 3-1 4-9t9-22l6-14h1v-1h1v-2h1v-1h1v-2h1v-1h2v1l-1 1v2l-1 2-1 1-6 15q-8 14-8 18-2 3-2 6v3l-1 1v1h1l2-1 13-2q13-4 19-7 7-4 12-13 4-8 5-10 1-1 2-1t3-3q3-2 9-6 6-2 13-4 8-1 10-10 2-10 3-12l1-1v-3h-3l-5 1q-5 1-20-1h-15l-3-1h-2v-2h1v-1h2v-1h1v1h22q23 0 26-9t4-9z" fill="#010a00" stroke="#010a00"/> <path d="m160 323 34-11 3 6q3 7 4 9l1 2v18h-26q-27 1-43 5t-26 9-19 15q-10 9-16 21t-8 27q-4 14-4 24v10t-1 0v1l-25 11q-26 12-27 12t-2 1l-1 1h-2v1h-1v1h-1v-95l1-1h2l2-2h2v-1h1q0-1 23-12t59-27q36-14 70-25z" fill="#c38101" stroke="#c38101"/> <path d="m601 218q2 0 6 4 5 4 5 6 0 3-2 4-1 0-6 1-4 1-5-1-1-1-3-6 0-4 1-6t4-2z" fill="#1e5a1c" stroke="#1e5a1c"/> <path d="m0 194v-194h116q0 1-5 5-5 5-9 11-4 7-7 8-3 2-14 7t-20 12-11 10-3 9l-1 6h1v1h1v2h1l2 2q2 3 3 3h1v1h1v1l14 4q13 4 20 5 8 1 10 7t8 12q6 4 12 7 5 3 9 3h4l1 1h2l12-1q11 0 22-5 10-5 15-9t6-5 3-1q2 1 9 4 7 4 9 4t10 1h9l11-3q11-2 19-8 9-6 10-9 2-3 15-3 12 0 20-3 7-3 8-3 1-2 8 0 6 0 10 1h4l2-1 8-2q8-3 12-5 3-3 18-3 16 0 26-5 9-5 13-8 5-3 8-9 3-7 3-16-1-10 2-14 4-4 4-7t0-5v-2h592v347q-1-1-24-9-23-10-65-22l-42-13v-1q-1 0-1-1t12-17q12-15 30-36 19-20 20-23 2-2-8 7-10 8-22 22-12 13-24 29t-15 17h-3q-2 0-2-1h-1l14-19q13-20 14-20v-1h1v-2h1v-1h1v-1h1v-1h-2v1h-1v1l-2 2v1t-1 1q-1 0-13 16l-12 16h-1v1h-1v2h-1v1h-1v1h-1v1h-1v-1h-1v-1h1v-2h1v-1h1v-2l16-21q15-22 32-42 18-20 20-21 2-2 2-2v-1h1v-1h1v-1h1v-1h1v-1h1v-1h1v-2h-1v1h-1v1h-1v1h-1v1h-1v1h-2v1h-1q0 1-14 14l-15 14h-3q-2 1-14 5l-13 4h-1q-1 0-1 1h-3q0 1 0 1h-1q-1 0-9 3l-7 3h-5 1v-1h1v-2h1v-1h1v-1l17-20q16-21 23-29 8-8 8-8h1v-1h1v-1h1v-1h1v-1h1v-1h1v-1h1-3v1h-1v1h-1v1h-1v1h-2v1q-1 0-16 15-15 14-29 32l-14 18h-1v1h-1v2h-1v1h-3v-1l-1-1-1-2v-3h-1v-1h1v-2h1l10-10q10-10 10-11h1v-1h1v-1h1v-1h1v-1h1v-1h1v-1h1v-1h-2v1h-1v1h-1v1h-1v1h-1v1h-1v1h-1q-1 0-10 8l-8 8v1h-1v1h-1v1h-1v1h-1v-1l-1-1-1-2v-3l-1-1-1-2-1-4q-1-5 2-7 3-1 4-2l1-1h2l2-1 1-1h2v-1h1v-1h-2l-2 1-1 1h-2l-1 1q-1 1-3 1h-2l-2 2h-3v-2l-1-2-1-1v-2h1l1-1h3l13-6q12-6 13-7l1-1h2l2-2h2v-1h1v-1h-2l-2 2h-2l-2 1q-2 1-17 7l-15 6v-2q-1-1-1-3l-2-2v-3 6q0 2 1 4 0 2-5 4t-11 4l-6 2q-1 0-1-4l-2-3v-2l-1 1v1h-1q0 1-6 4l-5 3h-1q-1 0-1 1h-1q-1 1-1 1h-1q-1 0-2 1l-1 1h-1q-1 0-8 5l-8 5h-2v1h-2v1h-1v1h-1v-2l1-3v-3h1v-4l2-7q2-6 11-12 9-4 10-5l1-1h1l1-1q1-1 1-1h1q1 0 1-1h1l16-9q16-8 17-9v-1l3-1q2-1 3-1t1 1h1v1h1l2 2h2l4 2 8-1q7-1 12-3 5-4 10-2 6 2 12 3h7l1-1 8-3q8-3 13-10t7-12 2-14 3-15 3-13-1-8-1-1v-2h-1v-1h-1v-2h-1v-1h-1v-1t-2-1q-2-2-2-8-2-5-3-8t-5-6q-4-2-10-3-7 0-8-3 0-3-5-9-4-7-9-10-6-3-14-5-7 0-14 2-6 2-11 6l-5 4v1h-1v-1q-1 0-4-4t-9-8l-5-3v-1q-1 0-1 0 0-1-1-1h-1q0-1-6-3-5-2-16-2t-18 2-14 6l-8 6h-1v1h-1v1h-1v1h-1v1h-1v2h-1v1h-1v1h-1v-1h-1v-1h-1v-1l1-3 1-2 2-10q2-11 2-14v-2h-2v-1h-1v-1h-5l-1 1q-1 1-7 4t-16 11l-11 8h-2q-2 0-4 1t-9 4-12 9q-6 5-9 12-3 6-11 9-7 3-17 9-9 6-14 12t-5 12v11l2 2v1q0 1-4 4-2 4-16 22l-14 17v1l-2 2v1h-1v1h-1v1l-2-4v-2q0-2-2-9-2-8-6-12-2-5-12-10-9-6-18-11-10-5-10-6t-1-1-1-1v-1h-1v-1h-1v-2h-5v3l1 2v1l3 2q3 1 4 2l1 1 1 2v1h-4q-4 1-5 1-2 0-14 7-11 7-15 14l-3 7-1 2-1 1v2h-1v-1h-1v-3l-2-2v-1q0-1-4-6-3-6-4-6t-1-1-5-4-16-4l-12-1v-1h1v-1h1v-1h1v-1h1v-1h1v-1h1q1 0 3-1l2-1h3v-1h1v-1h1v-2h-10v1t-4 2q-4 3-7 6-3 4-7 6-5 3-13 8-7 6-11 13t-5 18l-2 10h-1t-2 2-28 27l-26 26v1h-1v1h-1v1h-1v1h-1v1h-1v1h-1v-2l2-2v-2h1v-1h1l12-16q12-17 14-19 1-1 1-2h1v-1h1v-1h1v-1h1v-1h1v-1h1v-1h1v-1h-2v1h-1v1h-1v1h-1v1h-1v1h-1v1h-1t-12 14-23 32l-11 17h-1v1h-1v2l-1 1v1h-2v-6l-1-7v-3q0-2 2-6l2-5v-3l1-2 1-1v-3h-1v1h-1v3h-1t0 1h-1v2l-2 2v1-7l2-2v-1l2-3q2-3 3-3t5-5q3-5 22-27 18-22 21-25 3-4 4-4v-1h1v-1h1v-1h1v-1h1v-1h1v-3 1h-1v1h-1v1h-1v1h-1v1h-1v1h-1v1t-10 10-28 31l-18 21v1h-1v1h-1v1l-2 2v-3l-2-6v-2q0-3 0-8t8-13l8-7v-1h1v-1h2v-1h1v-1h1v-1h1v-1h1-3v1h-1v1h-1l-2 2h-1t-3 3l-4 3-2 2h-1v1h-1v1h-1v1h-1v-4l2-4v-2q0-2 4-15l4-13v-3l1-2 1-1v-3h-1v1h-1v2l-1 1-1 2v2l-4 12q-4 13-5 14l-1 2v4l-1 2v1h-1v4h-2v-5l-1-2q-1-2-3-12-2-9-10-29l-8-20v-3l-2-2v-2h-1v-1h-1v2l1 1 1 2v2l8 26q8 27 10 39t-4 17q-6 6-6 6v1h-1v1h-1v1h-1v1h-1v1l-1 1h-1v1h-1v1h-1v1h-1v1h-1t-4 5l-4 5h-1v1h-1v1h-1v1h-1v1h-1v1h-1v-4l1-3q1-3 3-17l4-14v-7 2l-2 2v2l-2 2-5 18q-5 19-6 20-1 0-1 1v6h-1v-1h-1v-1l-2-2v-1h-1v-1h-1v-1h-1v-1q-1 0-2-2-2-3-1-7v-10h-1v-1h-1v4l-2 4v3h-1v-1h-1v-1h-1v-1h-1v-1q0-1-8-8-6-8-7-10v-4q1-1 5-17l4-16 2-4v-4l-1 1-1 2v3l-2 2-4 13q-4 14-5 16l-1 1v3h-1v1h-1v-1h-1v-1h-1v-1h-1v-1q-1 0-10-8l-9-9h-1v-1h-1v-1h-1v-1h-1v-1h-1v-1h-1v2h1v1h1v1h1v1h1v1h1v1h1l10 11q10 10 11 11l1 1v1l-1 2-1 1v4l-1 1v1h-2v-1l-1-1v-1l-2-2v-1t-10-13q-10-12-29-32l-19-19h-1v-1h-1l-2-2h-1v-1h-1v-1h-1v-1h-1v2h1v1h1v1h1v1h1v1h1v1h1l16 19q16 18 30 36 12 18 13 18v1h1v2h1v1h1v3l-1 2-1 1v-1h-1v-1h-1v-1h-1v-1h-1v-1l-1-1q-1-1-3-3l-2-2v-1h-1v-1h-1v-1h-1v-1h-1v-1h-1v-1h-2v1h1v1l2 2v1h1v1h1l5 8q5 7 5 9t0 4v2l-1 1v2l-1 1v4l-2 5q0 5-1 8l-1 2v5h-1v1h-1v-2l-2-2v-2l-1-1q-1-1-11-18-12-17-27-36t-31-34l-16-15h-1v-1h-1v-1h-1v-1h-1v-1h-1v-1h-1v2h1v1h1v1h1v1h1v1h1v1h1l15 16q15 16 33 40t26 39q10 15 10 16v1l2 2v1l2 2v3h-2v-2l-2-2v-2h-1v-1h-1v-1q0-1-8-13t-20-27l-12-16h-1v-1h-1v-2h-1v-1h-1v-1h-1v-1h-1v-1 3h1v1h1v1l2 2v1l16 23q16 23 22 34 6 10 7 11l1 1v8h-4l-2-2v-2l-1-1q-1-1-1-3-2-2-14-22-12-19-27-38-15-18-28-29l-12-11v-1h-1v-1h-1v-1h-1v-1h-1v-1h-1v-1 3h1v1h1v1h1v1h1v1h1v1l19 21q20 22 34 43t20 30q4 9 5 10l1 1v2h1v1h-1v1h-1l-1 1-46 15q-46 15-82 32-37 17-46 21-10 6-11 6h-1v1h-1v1h-2l-1 1v-193zm281-71q0-1 0-1 1 0 1 0 0 1-1 1zm111 23h1v1l-1 1v1h-1v1h-1v1h-1v1h-1v1h-1q0 1-2 2t-1-1l2-2v-1h1v-1h1v-1h1v-1h1v-1h1v-1h1zm-66 6t0-1 0 1zm-220 11q0-1 1-1t1 1-1 1-1-1zm148 54v2h-1q0 1-1-1 0-1 4-20 6-19 2-1t-4 20zm-152-28-2-1h2q2 1 3 2 0 1-3-1zm278-1h1v1l-1 1v1h-1v1h-1q-1 0-1-1l1-1v-1h1v-1h1zm491 6t0-1q1 0 1 1 0 0-1 0zm85-1q1 0 1 1-1 1-2 2-1 0-1-1 1-1 2-2zm-763 25v-1h1l1 1h1v1q0 1-1 1h-1v-1l-1-1zm770-1h1v1q0 1-3 2-3 2-1 0t3-3z" fill="#3cbbf7" stroke="#3cbbf7"/> <path d="m285 286h3v1q0 1 0 3v1l-2 2v3h-2v-2l-2-2v-4h1l2-2z" fill="#624808" stroke="#624808"/> <path d="m687 62v-1h1v2h-1v1h-1v2h-1v1h-1v1h-1v1h-1q0 1 0 1t-4 4q-4 3-13 13-9 11-21 25-12 15-18 22l-6 8v2h-1v1h-1v1l-2 2v1q0 1-1 1t-2 2-16 25-30 50q-14 27-21 43-6 17-14 40l-6 22-2 4v3l-1 3q-1 2-1 4v2h-1l-4 1h-4v-2l1-2v-3q0-2 6-20l5-18v-1l1-1v-3l14-33q14-33 27-58 14-24 28-44t30-38q17-18 17-18 0-1 1-2v-1h1l1-1h1v-3l8-7q8-8 9-9 0-1 4-4t8-8 5-5h1v-1h1v-1h1v-1h1v-1h1v-1h1v-1h1z" fill="#6a4b0c" stroke="#6a4b0c"/> <path d="m841 383 1-5 1 6q1 7 2 12v5h-3q-2-1-2-1v-12l1-5z" fill="#bd8308" stroke="#bd8308"/> <path d="m427 0h5v2q0 2 0 5t-4 7q-3 4-2 14 0 9-3 16-3 6-8 9-4 3-13 8-10 5-26 5-15 0-18 3-4 2-12 5l-8 2-2 1h-1v-1l1-1v-1h-1v-1h3l2-1 8-2q7-4 10-6 2-2 18-2 15 0 25-5t15-11q6-6 6-14t-2-10q0-3 4-8t3-9q0-5 0-5z" fill="#12181b" stroke="#12181b"/> <path d="m560 360v-1h1v1h2v1h1v4l4 12q4 12 5 17 0 4 3 4h3v1l1 1v2h-1l-10 1q-10 1-25 3-15 4-20 4-6 2-8 0-1 0-6-2-5 0-12 2l-6 4h-3v2l1 1 2 3q4 3 4 3v1h1v1h1v1h-1l-1 1-2 1h-4q-4 0-8 1l-3 1h-1v1l2 2v1h1v1h1v2l3 2q3 1 5 2l3 1h2v1l1 1-2 2h-2q-2 0-6 2l-3 2-1 1h-1v2h1l1 1h2l2 2h13q10 0 17-3t9-5q1-2 8 0 6 2 13 3t9 1h2l2-1h2v1h1v1h1v1h-1v1h-5q-4-1-12-1-7 0-12-2t-5-1-1 1-1 1q-1 1-6 4-6 3-16 3-10 2-13 13-4 11-7 29-3 17-7 24-3 8-8 9-4 1-12 1-8-1-9-4-1-2-2-7t1-11 8-24 2-19-6-4q-2-2-3-2-1-1-2-3-1-3-1-11v-10l1-1v-1h-1l-1 1h-1l-2 2h-1q-1 0-7 3l-6 3h-2l-2 1-1 1h-2l-1-1v-3h3l2-2 14-7q14-7 25-14t11-8-2-1q-1-1-1-2v-3h1v1h2q2 2 8 1t16-6 13-8q4-2 4-2v-1h2v-1h1v-1h1v-1h1v-1h1v-1h-1v-1h-5q-3 0-7 0h-4v-1h-1v-3l2-2h3l2-2h2l1-1h2l1-1h2v2q1 1 1 1v-1h1l1 1v2l1 1v1h1l1 1h1v4q0 1-5 5l-5 5v4l-1 1v1h7q4 0 10-2 7-2 18-4t15-2h4v-4q-1-5-4-16l-3-12-1-2-1-3v-1zm-77 61q-3 0-3-1 0-2 0-3 1-1 3-1 3 0 3 2 0 3-3 3zm-6 33 3 2 2 2h3v2l-1 2v1h-1v1h-1v1h-1v1h-2l-1 1q-1 1-6 1-6 0-13-2t-8-4q-1-3-1-10t1-10q2-2 4-6t11-9 11-4q3 1 1 2-1 1-3 3t-5 2q-2 0-6 3t-4 9q0 5 3 7 2 3 7 3 4 0 7 2zm-7-6h-3v-1h-1v-1h-1q-1-1 0-4 1-4 2-5t5-2q5 0 6 4 0 4-2 6-2 3-6 3zm-10 84h-6l-1-1h-1v-7q0-5 6-26 8-20 8-22 0-3 7-4 7 0 11-3 5-2 0 17-4 19-6 27t-4 13q-3 4-6 6-4 0-8 0z" fill="#050a01" stroke="#050a01"/> <path d="m631 136h1l11 6q11 7 11 8t0 4v4q0 1 1 2v2t1 1l3 7q3 8 5 10t2 2l2 2q3 2 4 3 0 1 0 1h2l4 7q4 7 5 7v1h1v2l1 1 1 2t3 9 1 9q-3 0-2 1 0 1-4 3-4 0-6-1-2-2-24-21l-22-18v-1h-1v-1h-1l-2-2h-1v-1h-1v-1 3h1v1h2v1h1v1h1v1h1l20 18q20 19 20 19h1v1h1v1h1v1h1v3l-2 1-1 1h-2v1h-1v-1h-1l-1-1v-1h-1q-1-1-1-1-1-1-8-7l-8-6-2-2h-1v-1h-1v2h1v1h1v1q0 1-1 1-1 1-7 10l-6 10v3h-1v1h-1v2h-2v-2l-1-2-1-1v-1q0-2-5-9l-4-7 2-4q1-3 2-5l1-2v-1l2-4v-3l-2 2v1l-2 2v1q0 1-2 4l-1 3h-2v1l-1 1h-1v-1h-1v-1t-3-2q-2-2-11-9-10-7-11-8-1-2 16-27l16-25h1v-1h1v-1h1v-1l4-4q3-6 3-6zm-9 46q-2 0 0-1 1 0 1 1t-1 0zm19 33q0-1 1 0 2 1 0 1-1 0-1-1zm42 6q0-1 1-1 2 1 2 2t-1 0q-1 0-2-1z" fill="#3ebaf3" stroke="#3ebaf3"/> <path d="m963 217h1v1q0 1-4 4-4 2-20 20t-32 38q-14 19-15 21v2h-1q-1 0-1 1 1 1-1 2-1 0-4 5-4 5-14 25t-10 32l-2 12v6h-1v1h-1v-1l-1-2v-1h-2v-8q-1-8-1-8v-1q0-1 1-12l1-11 1-3 1-2v-2l2 2v1h1v3l1 3v-1l2-2v-3l2-2 8-17q10-16 10-17 1-1 0-2t-1-1h2q3-1 15-17t24-29q12-14 22-22 10-10 10-10l3-2q3-2 4-3z" fill="#6d9250" stroke="#6d9250"/> <path d="m819 323v-1h2v1l1 1v2l2 2v31h-1v-1h-1v-2q0-2-2-5v-3l-1-2-1-1v-2q0-1-1-2t-1-5l-2-5 2-2v-2l2-2v-1l1-1z" fill="#c18304" stroke="#c18304"/> <path d="m685 702v-1l15 1q16 0 24 4 8 3 11 6 3 2 2 6t-6 7-15 5q-9 2-19 2t-15 0h-5 1l2-1 3-1h2l17-2q16-2 20-4t6-2h1v-1h1v-1h2v-1l2-2v-2h-1v-1h-1v-1h-1v-1h-2v-1h-1q0-1-5-3t-21-3q-17-1-17-3z" fill="#030616" stroke="#030616"/> <path d="m836 241v2q0 1 0 2t-6 8l-6 7h-1v1h-1v2h-1v1h-1v1q-1 1-2 1t-2-4l-1-5h-2v1l-1 2 1 4q1 5 0 5-1 1-2 1h-1l-2 2h-2l-2 2h-2v1h-1v-1h-1v-2l-1-2q-1-2-2-8l-2-5v-2q-1-2-2-7l-1-5h1l1-1h2l2-2h2v-1h1v-1h1l2-1 1-1h1v3q2 3 2 5v2l1 2v2h2v-1l1-1v-3l-2-5q0-6 10-11t13 3 3 9z" fill="#40baf1" stroke="#40baf1"/> <path d="m326 279 3-1h2q-1 1-3 5t-5 11q-3 6-4 6t-1-5v-15h5l3-1z" fill="#825c0b" stroke="#825c0b"/> <path d="m632 418h-1v-1h-1v-1h-1v-1h-1v-8l2-2v-1h1q1 0 1-1t10-4q11-3 15-2t6 3q3 2 2 8 0 5-1 5t-4 3q-2 2-4 4-3 0-12 0t-10-1-2-1z" fill="#066a04" stroke="#066a04"/> <path d="m666 239-1 1h-1q-1 0-11 6l-10 6h-2l-2 2h-2v-2l1-1v-4h1v-1h1l3-10q4-11 5-11t1-1q0-2 7 4 8 6 10 8t1 2-1 1z" fill="#41baef" stroke="#41baef"/> <path d="m754 276 1 1v3q-1 2-1 2h-1q-1 0-1-4 0-3 2-2z" fill="#84620a" stroke="#84620a"/> <path d="m664 660v1l1 1v1q0 1-3 3-4 2-25 6t-57 4q-37 0-71-5l-34-5h-3v-1l-1-1v-1h1l1 1h7v-1l30 4q30 5 70 5 39 0 58-4t22-6 4-2z" fill="#060810" stroke="#060810"/> <path d="m817 278v2l1 3v2h-2q-3-1-4-1h-2l2-3q3-3 4-3t1 0z" fill="#3facd8" stroke="#3facd8"/> <path d="m779 380v11h-3l-3-17q-3-17-1-18 0-1 4 6 2 8 3 18z" fill="#c0850a" stroke="#c0850a"/> <path d="m968 432v-2l24 8q24 8 26 8h1l1 1 2 1h2v5l-1-1h-2l-1-1-2-1h-2q-1 0-24-8l-24-8v-2z" fill="#0a0805" stroke="#0a0805"/> <path d="m701 330h1v4q0 5-1 6v2q-1 0-2 2t-2 1 1-9q2-7 3-6z" fill="#a48522" stroke="#a48522"/> <path d="m231 365h-1l-1-7q-1-8 0-8t2 8q1 7 0 7z" fill="#846309" stroke="#846309"/> <path d="m702 292 1-1v9h-1q-1 0-2-2-1 0-1-2t1-2 2-2z" fill="#b88410" stroke="#b88410"/> </g> </svg>