<?xml version='1.0' encoding='utf-8'?>
<svg xmlns="http://www.w3.org/2000/svg" viewBox="0 0 800 800"> <defs> <linearGradient id="a" x1="478.07" x2="165.98" y1="498.18" y2="215.98" gradientTransform="matrix(1 0 0 -1 0 800)" gradientUnits="userSpaceOnUse"> <stop offset="0"/> <stop stop-opacity="0" offset="1"/> </linearGradient> </defs> <circle cx="400" cy="400" r="400" fill="#1c8adb"/> <path d="m265.05 177.32-262.63 262.63a400 400 0 0 0 291.69 345.32l289.45-289.45-44.239-44.24 130.73-130.73a382.42 382.42 0 0 0-362.04-100.57z" fill="url(#a)" opacity=".42" style="isolation:isolate"/> <path d="m571.85 419.06a241.63 241.63 0 0 0-133.04-67.977l8.666 8.666a234.78 234.78 0 0 1 114.35 59.438l-27.457 27.457-86.896-86.894 136.08 136.08-44.239-44.24z" fill="#fff"/> <path d="m326.35 517.26 73.652 73.65 73.652-73.65a104.02 104.02 0 0 0-147.3 0zm73.652 63.752-63.504-63.504a96.485 96.485 0 0 1 127.02-0.0137z" fill="#fff"/> <path d="m400.09 209.09a383.94 383.94 0 0 0-92.074 11.199l5.7949 5.7949a374.74 374.74 0 0 1 346.22 94.896l-39.203 39.201c-71.616-68.586-167.36-97.342-259.21-86.293l6.2246 6.2246a311.86 311.86 0 0 1 253.11 89.844l49.1-49.102a380.57 380.57 0 0 0-269.96-111.77z" fill="#fff"/> <path d="m277.5 458.51-39.32-39.32a235.54 235.54 0 0 1 112.49-59.027l-66.808-66.809a317.9 317.9 0 0 0-104.69 66.828l-39.199-39.197a375.22 375.22 0 0 1 101.66-69.861l-5.2988-5.2988a381.68 381.68 0 0 0-106.39 75.031l49.1 49.102a311.3 311.3 0 0 1 110.14-71.283l55.648 55.648a242.3 242.3 0 0 0-116.68 64.734l49.102 49.102a173.16 173.16 0 0 1 130.79-50.631l126.91 126.91-133.85-133.85a179.88 179.88 0 0 0-123.6 47.922z" fill="#fff"/> <path d="m265.05 187.22 308.61 308.61-38.71 38.712-308.61-308.61 38.71-38.71m0-9.9-48.609 48.609 318.51 318.51 48.609-48.611-318.51-318.51z" fill="#fff"/> </svg>